<svg xmlns="http://www.w3.org/2000/svg"  viewBox="0 0 100 100" width="48px" height="48px"><path fill="#ff8405" d="M49.5,18C30.998,18,16,30.984,16,47c0,8.45,4.177,16.053,10.839,21.354L24,79l15.085-4.437 C42.364,75.491,45.862,76,49.5,76C68.002,76,83,63.016,83,47C83,30.984,68.002,18,49.5,18z"/><path fill="#4343bf" d="M19.727,83.384l3.724-13.966C16.784,63.46,13,55.391,13,47c0-17.645,16.374-32,36.5-32 S86,29.355,86,47S69.626,79,49.5,79c-3.521,0-7.009-0.443-10.382-1.319L19.727,83.384z M49.5,21C32.683,21,19,32.663,19,47 c0,7.171,3.538,14.098,9.707,19.006l1.536,1.223l-1.97,7.388l10.795-3.175l0.833,0.235C43.005,72.555,46.234,73,49.5,73 C66.317,73,80,61.337,80,47S66.317,21,49.5,21z"/><path fill="#3abcf8" d="M71.484,77.078L66.516,68.4C74.959,63.566,80,55.547,80,46.948C80,32.689,66.317,21.09,49.5,21.09 S19,32.689,19,46.948H9C9,27.176,27.168,11.09,49.5,11.09S90,27.176,90,46.948C90,59.178,83.078,70.441,71.484,77.078z"/><rect width="4" height="20" x="48" y="42" fill="#edf7f5"/><rect width="4" height="7" x="48" y="30" fill="#edf7f5"/></svg>