<svg width="49" height="48" viewBox="0 0 49 48" fill="none" xmlns="http://www.w3.org/2000/svg">
<path d="M42.6852 10.4498H22.8364L18.6473 6.23438H7.46538C4.52552 6.24916 4.00251 7.53794 4.00251 9.61661L3.97656 38.3394C3.97656 40.4308 4.15243 41.7656 6.54476 41.7656H12.0006V40.2718C11.0787 39.5755 10.9492 38.7978 11.0309 38.0696C11.1147 37.4602 11.3775 37.0961 11.6988 36.7573C12.2412 36.2838 12.7741 36.1194 13.3032 36.1322C14.0236 36.1498 14.4917 36.468 14.8401 36.7529C15.1272 36.9877 15.3808 37.3842 15.5132 38.0788C15.6495 39.0178 15.1666 39.8376 14.5135 40.2944V41.7656H15.3717H34.116V40.2628C33.5398 39.8786 33.0035 39.081 33.1101 38.0259C33.4084 36.6193 34.5754 36.1377 35.3783 36.1377C36.1026 36.1377 37.274 36.4927 37.6063 38.0259C37.7649 38.8718 37.3193 39.8687 36.6244 40.2765V41.7656H42.6142C45.0228 41.7656 45.7624 40.5188 45.7624 38.4812V13.4456C45.7624 11.621 44.3495 10.4498 42.6852 10.4498Z" fill="#673AB7"/>
<circle cx="15.4517" cy="20.7251" r="4.25638" fill="#D1C4E9"/>
<path d="M22.7313 32.3798H7.82031V29.8678C11.1878 26.0767 19.2634 25.9288 22.7313 29.8678V32.3798Z" fill="#D1C4E9"/>
<rect width="15.8884" height="2.4923" transform="matrix(1 0 0 -1 25.7266 19.9844)" fill="#D1C4E9"/>
<rect width="15.8884" height="1.97437" transform="matrix(1 0 0 -1 25.6875 24.9219)" fill="#D1C4E9"/>
<rect width="8.51276" height="2.51177" transform="matrix(1 0 0 -1 25.6875 30.4297)" fill="#D1C4E9"/>
</svg>
