<svg width="49" height="48" viewBox="0 0 49 48" fill="none" xmlns="http://www.w3.org/2000/svg">
<path d="M44.387 9.15677H22.644L18.0552 4.53906H5.80613C2.58572 4.55526 2.0128 5.96702 2.0128 8.24406L1.98438 39.7079C1.98438 41.9988 2.17703 43.461 4.79766 43.461H10.7741V41.8246C9.76421 41.0619 9.62236 40.21 9.71195 39.4123C9.80366 38.7447 10.0916 38.3459 10.4435 37.9747C11.0377 37.4561 11.6215 37.276 12.2011 37.2901C12.9902 37.3093 13.5029 37.6579 13.8846 37.9699C14.1992 38.2272 14.4769 38.6615 14.622 39.4224C14.7712 40.451 14.2423 41.349 13.5268 41.8494V43.461H14.467H35V41.8148C34.3688 41.394 33.7813 40.5202 33.8981 39.3644C34.2249 37.8237 35.5032 37.2961 36.3827 37.2961C37.1762 37.2961 38.4593 37.6849 38.8234 39.3644C38.9971 40.291 38.509 41.3831 37.7478 41.8298V43.461H44.3092C46.9476 43.461 47.7578 42.0952 47.7578 39.8632V12.4384C47.7578 10.4397 46.2101 9.15677 44.387 9.15677Z" fill="#673AB7"/>
<circle cx="14.5532" cy="20.4126" r="4.66256" fill="#D1C4E9"/>
<path d="M22.5292 33.1775H6.19531V30.4257C9.88417 26.2728 18.7304 26.1109 22.5292 30.4257V33.1775Z" fill="#D1C4E9"/>
<rect width="17.4046" height="2.73014" transform="matrix(1 0 0 -1 25.8125 19.6016)" fill="#D1C4E9"/>
<rect width="17.4046" height="2.16278" transform="matrix(1 0 0 -1 25.7656 25.0078)" fill="#D1C4E9"/>
<rect width="9.32513" height="2.75147" transform="matrix(1 0 0 -1 25.7656 31.0391)" fill="#D1C4E9"/>
</svg>
