<svg width="49" height="48" viewBox="0 0 49 48" fill="none" xmlns="http://www.w3.org/2000/svg">
<path d="M38.7905 11.6875H32.0851L28.7489 11.7075L21.0627 11.6875H17.7226L10.581 11.7075C8.20286 11.6875 6.66605 14.0322 6.66605 16.2068L6.66406 38.3409C6.66406 40.6202 9.23419 42.3338 11.0318 42.3338H38.7376C40.2957 42.3338 43.0815 39.7391 43.0815 38.1985V15.6128C43.0815 13.7808 41.0428 11.6875 38.7905 11.6875Z" fill="#BD6300"/>
<path d="M32.4722 11.7827L28.4296 11.7824V9.41703H21.0456V11.744H17.2578V8.50497C17.294 6.85671 18.5883 5.6704 20.1325 5.66406L29.6672 5.6704C31.44 5.6491 32.4722 7.13274 32.4722 8.30835V11.7827Z" fill="#C2AB34"/>
<path d="M39.3781 26.4215H10.4434C8.03705 26.4215 6.66406 25.3626 6.66563 23.9809L6.66406 15.647C6.66406 13.3022 8.59148 11.6875 11.0471 11.6875L38.391 11.6883C41.5634 11.7765 43.0798 13.8978 43.0798 16.3447V23.0892C43.0798 24.8955 41.9707 26.4215 39.3781 26.4215Z" fill="#FFA500"/>
<path d="M29.1466 24.5469H20.5703V29.4703H29.1466V24.5469Z" fill="#FFCE29"/>
<path d="M10.4367 29.7943C10.4367 31.0214 9.77823 32.6437 6.64844 32.6437L6.66261 16.1059C6.62157 14.6239 6.81626 13.9355 7.33079 13.258C8.00865 12.3655 9.42562 11.6191 11.2175 11.6748L26.0701 11.7561C26.5626 12.5825 25.6996 16.0924 23.7142 16.0924H10.4367V17.0817V29.7943Z" fill="#FFCE29" fill-opacity="0.5"/>
<path d="M11.033 20.31C11.033 21.6789 8.54688 21.6097 8.54688 20.31V15.9951C8.56513 14.2506 9.41762 13.9141 11.033 13.9141H15.3866C16.9151 13.9141 16.7491 16.3787 15.3866 16.3787H11.942C11.2712 16.3787 11.033 16.4224 11.033 17.2076V20.31Z" fill="white"/>
</svg>
