<svg width="49" height="48" viewBox="0 0 49 48" fill="none" xmlns="http://www.w3.org/2000/svg">
<path d="M41.937 8.90625H33.7172L29.6275 8.93074L20.2054 8.90625H16.1108L7.35634 8.93074C4.44103 8.90625 2.55712 11.7805 2.55712 14.4463L2.55469 41.5794C2.55469 44.3735 5.70529 46.4741 7.90891 46.4741H41.8722C43.7821 46.4741 47.1972 43.2934 47.1972 41.4049V13.7181C47.1972 11.4724 44.698 8.90625 41.937 8.90625Z" fill="#BD6300"/>
<path d="M34.1975 9.02395L29.2418 9.02368V6.12403H20.1901V8.9766H15.5469V5.00598C15.5912 2.98545 17.1778 1.5312 19.0708 1.52344L30.7589 1.5312C32.9321 1.50509 34.1975 3.32382 34.1975 4.76495V9.02395Z" fill="#C2AB34"/>
<path d="M42.6574 26.968H7.18761C4.23777 26.968 2.55469 25.6699 2.55661 23.9762L2.55469 13.7601C2.55469 10.8856 4.91742 8.90622 7.92765 8.90625L41.4473 8.90722C45.3361 9.01539 47.1951 11.6158 47.1951 14.6154V22.8831C47.1951 25.0973 45.8355 26.968 42.6574 26.968Z" fill="#FFA500"/>
<path d="M30.1227 24.6719H19.6094V30.7072H30.1227V24.6719Z" fill="#FFCE29"/>
<path d="M7.18294 31.1061C7.18294 32.6103 6.37573 34.5991 2.53906 34.5991L2.55644 14.3261C2.50612 12.5094 2.74479 11.6655 3.37552 10.835C4.20648 9.74086 5.94348 8.82597 8.14005 8.89421L26.3472 8.99386C26.9509 10.0069 25.8931 14.3095 23.4591 14.3095H7.18294V15.5223V31.1061Z" fill="#FFCE29" fill-opacity="0.5"/>
<path d="M7.91487 19.4734C7.91487 21.1514 4.86719 21.0666 4.86719 19.4734V14.1838C4.88956 12.0454 5.93459 11.6328 7.91487 11.6328H13.2517C15.1254 11.6328 14.9219 14.6541 13.2517 14.6541H9.02907C8.20685 14.6541 7.91487 14.7076 7.91487 15.6702V19.4734Z" fill="white"/>
</svg>
