<svg width="48" height="48" viewBox="0 0 48 48" fill="none" xmlns="http://www.w3.org/2000/svg">
<path d="M7.37687 11.443C7.29687 9.132 9.09788 7 11.5329 7H36.4789C38.9139 7 40.7149 9.132 40.6339 11.443C40.5569 13.664 40.6569 16.54 41.3809 18.886C42.0619 21.093 43.1819 22.538 44.9739 22.867C45.1799 22.905 45.3369 23.072 45.3369 23.282V24.72C45.3369 24.93 45.1799 25.097 44.9739 25.135C43.1819 25.463 42.0619 26.908 41.3809 29.116C40.6569 31.461 40.5569 34.338 40.6339 36.559C40.7139 38.868 38.9129 41 36.4789 41H11.5329C9.09888 41 7.29688 38.868 7.37788 36.557C7.45488 34.336 7.35487 31.46 6.63087 29.114C5.94987 26.907 4.82687 25.462 3.03487 25.133C2.82887 25.095 2.67188 24.928 2.67188 24.718V23.28C2.67188 23.07 2.82887 22.903 3.03487 22.865C4.82687 22.537 5.94987 21.092 6.63087 18.884C7.35387 16.54 7.45487 13.664 7.37687 11.443Z" fill="url(#paint0_linear_173_132)"/>
<path d="M27.0761 23.4651V23.4371C28.9291 23.1171 30.3751 21.3801 30.3751 19.4671C30.3751 18.1151 29.8551 16.9691 28.8711 16.1551C27.8901 15.3431 26.5141 14.9141 24.8901 14.9141H17.4531V33.0811H24.9281C26.8701 33.0811 28.4831 32.6071 29.5911 31.7091C30.7001 30.8101 31.2871 29.5021 31.2871 27.9261C31.2861 25.5451 29.5961 23.7571 27.0761 23.4651ZM23.5931 22.6091H20.4121V17.2911H24.1961C26.2721 17.2911 27.4151 18.2021 27.4151 19.8561C27.4161 21.6311 26.0581 22.6091 23.5931 22.6091ZM20.4121 24.8351H24.1711C26.8871 24.8351 28.2631 25.8161 28.2631 27.7511C28.2631 29.6831 26.9061 30.7041 24.3381 30.7041H20.4121V24.8351Z" fill="white"/>
<defs>
<linearGradient id="paint0_linear_173_132" x1="24.0039" y1="41" x2="24.0039" y2="7" gradientUnits="userSpaceOnUse">
<stop stop-color="#643499"/>
<stop offset="0.011" stop-color="#68369F"/>
<stop offset="0.135" stop-color="#773DB6"/>
<stop offset="0.193" stop-color="#8042C3"/>
<stop offset="0.248" stop-color="#8343C8"/>
<stop offset="0.388" stop-color="#8444C9"/>
<stop offset="0.732" stop-color="#9751D2"/>
<stop offset="0.997" stop-color="#9C55D4"/>
<stop offset="0.998" stop-color="#9C55D4"/>
<stop offset="1" stop-color="#9C55D4"/>
</linearGradient>
</defs>
</svg>
