<svg width="48" height="49" viewBox="0 0 48 49" fill="none" xmlns="http://www.w3.org/2000/svg">
<path d="M7.19537 7.91038L9.82237 37.6804C9.93137 38.9174 10.7924 39.9604 11.9864 40.3014L22.6294 43.3424C23.5274 43.5994 24.4784 43.5994 25.3764 43.3424L36.0194 40.3014C37.2134 39.9604 38.0744 38.9184 38.1834 37.6804L40.8104 7.91038C40.9144 6.74038 39.9934 5.73438 38.8194 5.73438H9.18737C8.01337 5.73438 7.09237 6.74038 7.19537 7.91038Z" fill="url(#paint0_linear_173_73)"/>
<path d="M24 8.73438V40.6344L33.876 37.8124C34.673 37.5844 35.247 36.8884 35.319 36.0634L37.605 9.82137C37.656 9.23637 37.196 8.73438 36.609 8.73438H24Z" fill="#35C1F1"/>
<path d="M33.1 13.7344H24V17.7344H28.9L28.6 21.7344H24V25.7344H28.4L28.1 30.2344L24 31.6344V35.8344L31.9 33.2344L32.6 21.7344L33.1 13.7344Z" fill="white"/>
<path d="M23.9969 13.7344V17.7344H15.0969L14.7969 13.7344H23.9969ZM19.3969 21.7344L19.5969 25.7344H23.9969V21.7344H19.3969ZM19.7969 27.7344H15.7969L16.0969 33.2344L23.9969 35.8344V31.6344L19.8969 30.2344L19.7969 27.7344Z" fill="#D6E0E9"/>
<path opacity="0.05" d="M33.0967 13.7344L32.5967 21.7344L31.8967 33.2344L23.9967 35.8344L16.0968 33.2344L15.7968 27.7344H19.7967L19.8967 30.2344L23.9967 31.6344L28.0968 30.2344L28.3967 25.7344H23.9967H19.5968L19.3967 21.7344H23.9967H28.5968L28.8967 17.7344H23.9967H15.0968L14.7968 13.7344H23.9967H33.0967ZM34.1608 12.7344H33.0967H23.9967H14.7968H13.7188L13.7998 13.8094L14.0997 17.8094L14.1687 18.7344H15.0968H23.9967H27.8188L27.6688 20.7344H23.9967H19.3967H18.3458L18.3977 21.7844L18.5977 25.7844L18.6458 26.7344H15.7968H14.7408L14.7987 27.7884L15.0988 33.2884L15.1357 33.9704L15.7847 34.1844L23.6847 36.7844L23.9967 36.8874L24.3097 36.7844L32.2098 34.1844L32.8537 33.9724L32.8947 33.2954L33.5947 21.7954L34.0947 13.7974L34.1608 12.7344ZM20.7577 26.7344H23.9967H27.3277L27.1427 29.5034L23.9967 30.5774L20.8687 29.5094L20.7957 27.6944L20.7577 26.7344Z" fill="black"/>
<path opacity="0.07" d="M33.0968 13.7344L32.5968 21.7344L31.8968 33.2344L23.9968 35.8344L16.0968 33.2344L15.7968 27.7344H19.7968L19.8968 30.2344L23.9968 31.6344L28.0968 30.2344L28.3968 25.7344H23.9968H19.5968L19.3968 21.7344H23.9968H28.5968L28.8968 17.7344H23.9968H15.0968L14.7968 13.7344H23.9968H33.0968ZM33.6288 13.2344H33.0968H23.9968H14.7968H14.2578L14.2978 13.7714L14.5978 17.7714L14.6328 18.2344H15.0968H23.9968H28.3578L28.1328 21.2344H23.9968H19.3968H18.8708L18.8968 21.7594L19.0968 25.7594L19.1208 26.2344H19.5968H23.9968H27.8628L27.6208 29.8684L23.9968 31.1064L20.3828 29.8724L20.2968 27.7144L20.2768 27.2344H19.7968H15.7968H15.2688L15.2978 27.7614L15.5978 33.2614L15.6168 33.6024L15.9408 33.7094L23.8408 36.3094L23.9968 36.3604L24.1528 36.3094L32.0528 33.7094L32.3748 33.6034L32.3958 33.2644L33.0958 21.7644L33.5958 13.7654L33.6288 13.2344Z" fill="black"/>
<defs>
<linearGradient id="paint0_linear_173_73" x1="16.3334" y1="-2.01362" x2="32.2964" y2="41.8434" gradientUnits="userSpaceOnUse">
<stop stop-color="#2AA4F4"/>
<stop offset="1" stop-color="#007AD9"/>
</linearGradient>
</defs>
</svg>
