<svg width="48" height="49" viewBox="0 0 48 49" fill="none" xmlns="http://www.w3.org/2000/svg">
<path d="M24 46.0938C35.9259 46.0938 45.5938 36.4259 45.5938 24.5C45.5938 12.5741 35.9259 2.90625 24 2.90625C12.0741 2.90625 2.40625 12.5741 2.40625 24.5C2.40625 36.4259 12.0741 46.0938 24 46.0938Z" fill="white"/>
<path d="M31.2849 24.5013L23.1988 13.8628H24.2449C24.9896 13.8628 25.6909 14.2103 26.1412 14.8034L32.3993 23.0367L38.6574 14.8034C39.1068 14.2103 39.8081 13.8628 40.5528 13.8628H41.5989L33.5128 24.5013L41.9766 35.6362H40.9304C40.1858 35.6362 39.4845 35.2886 39.0341 34.6955L32.3984 25.9658L25.7627 34.6955C25.3123 35.2878 24.6111 35.6362 23.8664 35.6362H22.8203L31.2849 24.5013ZM5.35901 25.3878V26.082C5.35901 29.8045 7.82004 33.2026 11.4477 34.036C15.3831 34.9402 18.9745 32.9305 20.5153 29.7434C20.7546 29.2487 21.2529 28.9339 21.8016 28.9339H22.713C21.5437 33.0608 17.7342 36.0785 13.2208 36.0254C7.82092 35.9615 3.58594 31.3223 3.58594 25.5137V25.3878V23.6147V22.98C3.58594 18.1687 6.96541 13.8726 11.7164 13.1075C17.8193 12.1243 23.0898 16.8105 23.0898 22.7282V25.3878H5.35901ZM5.35901 23.6147H21.3167V22.7282C21.3167 17.721 16.7049 13.7919 11.4974 14.955C7.84485 15.7715 5.35901 19.1838 5.35901 23.3576V23.6147Z" fill="url(#paint0_linear_202_22)"/>
<defs>
<linearGradient id="paint0_linear_202_22" x1="5.22692" y1="4.63931" x2="32.3727" y2="31.785" gradientUnits="userSpaceOnUse">
<stop stop-color="#6D7479"/>
<stop offset="1" stop-color="#323538"/>
</linearGradient>
</defs>
</svg>
