<svg width="49" height="48" viewBox="0 0 49 48" fill="none" xmlns="http://www.w3.org/2000/svg">
<path d="M24.8672 45.1498C36.7931 45.1498 46.4609 35.6793 46.4609 23.9968C46.4609 12.3143 36.7931 2.84375 24.8672 2.84375C12.9413 2.84375 3.27344 12.3143 3.27344 23.9968C3.27344 35.6793 12.9413 45.1498 24.8672 45.1498Z" fill="white"/>
<path d="M32.1521 24.0004L24.066 13.5791H25.1121C25.8568 13.5791 26.5581 13.9195 27.0084 14.5005L33.2665 22.5658L39.5246 14.5005C39.974 13.9195 40.6753 13.5791 41.42 13.5791H42.4661L34.38 24.0004L42.8437 34.9081H41.7976C41.0529 34.9081 40.3517 34.5677 39.9013 33.9867L33.2656 25.4351L26.6299 33.9867C26.1795 34.5668 25.4783 34.9081 24.7336 34.9081H23.6875L32.1521 24.0004ZM6.2262 24.8689V25.5489C6.2262 29.1955 8.68723 32.5242 12.3149 33.3405C16.2503 34.2264 19.8417 32.2576 21.3825 29.1355C21.6218 28.6509 22.1201 28.3426 22.6688 28.3426H23.5802C22.4108 32.3853 18.6014 35.3414 14.088 35.2893C8.6881 35.2268 4.45312 30.6822 4.45312 24.9922V24.8689V23.132V22.5102C4.45312 17.7971 7.8326 13.5886 12.5836 12.8392C18.6865 11.8761 23.957 16.4667 23.957 22.2635V24.8689H6.2262ZM6.2262 23.132H22.1839V22.2635C22.1839 17.3586 17.5721 13.5096 12.3646 14.649C8.71204 15.4489 6.2262 18.7915 6.2262 22.8801V23.132Z" fill="url(#paint0_linear_202_22)"/>
<defs>
<linearGradient id="paint0_linear_202_22" x1="6.0941" y1="4.54384" x2="32.6802" y2="31.6838" gradientUnits="userSpaceOnUse">
<stop stop-color="#6D7479"/>
<stop offset="1" stop-color="#323538"/>
</linearGradient>
</defs>
</svg>
