<svg width="48" height="48" viewBox="0 0 48 48" fill="none" xmlns="http://www.w3.org/2000/svg">
<rect x="1.38281" y="1.39062" width="45.2841" height="45.2841" rx="22.6421" fill="white"/>
<path d="M24 0C10.7455 0 0 10.7455 0 24C0 37.2545 10.7455 48 24 48C37.2545 48 48 37.2545 48 24C48 10.7455 37.2545 0 24 0ZM24 4.36364C34.8447 4.36364 43.6364 13.1553 43.6364 24C43.6364 32.9877 37.5913 40.5484 29.3501 42.88C29.2489 42.6713 29.1795 42.4428 29.1861 42.1832C29.2199 40.8643 29.1861 37.7864 29.1861 36.6563C29.1861 34.7166 27.9588 33.3409 27.9588 33.3409C27.9588 33.3409 37.5852 33.4496 37.5852 23.1776C37.5852 19.2143 35.5142 17.1499 35.5142 17.1499C35.5142 17.1499 36.6022 12.9188 35.1371 11.1243C33.4953 10.9465 30.5546 12.6925 29.299 13.5085C29.299 13.5085 27.3098 12.6925 24 12.6925C20.6902 12.6925 18.701 13.5085 18.701 13.5085C17.4454 12.6925 14.5047 10.9476 12.8629 11.1243C11.3989 12.9188 12.4858 17.1499 12.4858 17.1499C12.4858 17.1499 10.4148 19.2122 10.4148 23.1754C10.4148 33.4474 20.0412 33.3409 20.0412 33.3409C20.0412 33.3409 18.9451 34.5887 18.8352 36.3771C18.1919 36.604 17.3151 36.8714 16.4787 36.8714C14.4605 36.8714 12.9273 34.9112 12.3643 34.0036C11.8102 33.1079 10.674 32.3565 9.61364 32.3565C8.91545 32.3565 8.57386 32.7073 8.57386 33.1065C8.57386 33.5058 9.55376 33.7838 10.1996 34.5234C11.561 36.0834 11.5358 39.5923 16.3871 39.5923C16.9607 39.5923 17.9913 39.4602 18.8139 39.3473C18.8094 40.4486 18.7966 41.5049 18.8139 42.1811C18.8203 42.4415 18.7496 42.6709 18.6477 42.88C10.4076 40.5477 4.36364 32.987 4.36364 24C4.36364 13.1553 13.1553 4.36364 24 4.36364Z" fill="black"/>
</svg>
