<svg width="49" height="49" viewBox="0 0 49 49" fill="none" xmlns="http://www.w3.org/2000/svg">
<path d="M41.0234 5.26562H7.02344L10.0234 39.2656L24.0234 43.2656L38.0234 39.2656L41.0234 5.26562Z" fill="#E65100"/>
<path d="M24.0234 8.26562V40.1656L35.2234 36.9656L37.7234 8.26562H24.0234Z" fill="#FF6D00"/>
<path d="M24.0234 25.2656V21.2656H32.6234L31.9234 32.7656L24.0234 35.3656V31.1656L28.1234 29.7656L28.4234 25.2656H24.0234ZM32.9234 17.2656L33.2234 13.2656H24.0234V17.2656H32.9234Z" fill="white"/>
<path d="M24.0219 31.1656V35.3656L16.1219 32.7656L15.7219 27.2656H19.7219L19.9219 29.7656L24.0219 31.1656ZM19.1219 17.2656H24.0219V13.2656H14.9219L15.6219 25.2656H24.0219V21.2656H19.4219L19.1219 17.2656Z" fill="#EEEEEE"/>
</svg>
