<svg width="49" height="49" viewBox="0 0 49 49" fill="none" xmlns="http://www.w3.org/2000/svg">
<path d="M6.125 42.7344V6.73438H42.125V42.7344H6.125Z" fill="#FFD600"/>
<path d="M29.6659 33.6814C30.3579 34.8054 31.1099 35.8824 32.7029 35.8824C34.0409 35.8824 34.7429 35.2174 34.7429 34.2974C34.7429 33.1964 34.0169 32.8054 32.5449 32.1644L31.7379 31.8204C29.4089 30.8324 27.8599 29.5944 27.8599 26.9794C27.8599 24.5694 29.7049 22.7354 32.5879 22.7354C34.6409 22.7354 36.1159 23.4464 37.1799 25.3084L34.6659 26.9154C34.1129 25.9274 33.5149 25.5384 32.5879 25.5384C31.6419 25.5384 31.0429 26.1354 31.0429 26.9154C31.0429 27.8794 31.6429 28.2694 33.0279 28.8664L33.8349 29.2104C36.5799 30.3794 38.1279 31.5734 38.1279 34.2574C38.1279 37.1494 35.8439 38.7344 32.7779 38.7344C29.7789 38.7344 28.0759 37.2294 27.1279 35.3664L29.6659 33.6814ZM18.0799 33.7634C18.5859 34.6694 19.3549 35.3664 20.4609 35.3664C21.5189 35.3664 22.1279 34.9484 22.1279 33.3234V22.7344H25.4609V33.8354C25.4609 37.2024 23.5079 38.7344 20.6559 38.7344C18.0789 38.7344 16.2189 36.9884 15.4609 35.3664L18.0799 33.7634Z" fill="#000001"/>
</svg>
