<svg width="48" height="48" viewBox="0 0 48 48" fill="none" xmlns="http://www.w3.org/2000/svg">
<path d="M1 5L7 9V29L1 25V5Z" fill="#29B6F6"/>
<path d="M47 20L41 24V37L47 33V20Z" fill="#0288D1"/>
<path d="M47 6L41 10V17L47 13V6Z" fill="#0288D1"/>
<path d="M35 5L29 9V29L35 25V5Z" fill="#0288D1"/>
<path d="M1 12L18 23V16L1 5V12Z" fill="#29B6F6"/>
<path d="M35 12L18 23V16L35 5V12Z" fill="#0288D1"/>
<path d="M35 26L18 37V30L35 19V26Z" fill="#0288D1"/>
<path d="M47 34L30 45V38L47 27V34Z" fill="#0288D1"/>
<path d="M30 37.765L18 30V37L30 44.765V37.765Z" fill="#29B6F6"/>
</svg>
