<svg width="48" height="48" viewBox="0 0 48 48" fill="none" xmlns="http://www.w3.org/2000/svg">
<path d="M18 29.9922V34.9982L21.994 34.9932V29.9972L20 32.0022L18 29.9922Z" fill="#B71C1C"/>
<path d="M46.5873 21.439C46.4103 21.218 45.7473 21.085 45.7473 21.085L44.9513 22.677L45.0393 20.908C45.0393 20.908 40.2183 18.962 36.3713 18.033C32.5243 17.104 29.7913 16.742 28.3233 16.707C27.2613 16.681 25.2263 16.795 25.2263 16.795L26.9513 18.431C26.9513 18.431 24.7843 17.546 23.9883 17.237C23.1923 16.928 21.9543 16.927 21.3343 16.883C20.7153 16.839 20.1843 17.104 20.1843 17.104C20.1843 17.104 19.6093 17.546 20.9363 20.509C22.0243 22.939 24.6553 24.474 25.5683 24.949C19.6513 23.665 18.9903 17.944 18.9903 17.944C18.9903 17.944 15.3873 17.907 10.2333 19.713C4.40931 21.754 0.945312 25.684 0.945312 25.684C0.945312 25.684 5.54531 24.136 9.43731 25.197C13.3293 26.258 14.9343 28.985 14.9343 28.985L15.0413 25.978H17.9773L20.2283 28.691L21.9863 26.014H24.9573C24.9573 26.014 24.9723 26.014 24.9933 26.013V31.992C24.9933 31.992 27.0073 30.327 28.3653 29.664C30.1783 28.779 34.3803 29.045 34.3803 29.045C34.3803 29.045 34.3133 28.575 34.0653 28.078C33.7133 27.374 34.6383 27.143 34.6383 27.143C34.6383 27.143 42.9163 25.33 43.8443 25.153C44.7733 24.976 45.4363 24.578 45.6573 24.357C45.8783 24.136 46.4973 22.588 46.6303 22.411C46.7643 22.235 46.7643 21.66 46.5873 21.439ZM21.2013 18.387C21.4223 18.033 22.0863 17.9 23.1033 18.387C24.3033 18.961 25.7573 20.864 25.7573 20.864L24.5193 20.289L25.1383 21.395L24.0323 20.776L25.0053 22.191L24.3423 22.014L25.2273 23.473C21.3783 21.262 20.9803 18.741 21.2013 18.387ZM37.9193 20.554L37.2563 21.04C37.2563 21.04 34.6023 21.394 33.8953 21.35C33.1873 21.306 32.7453 20.244 32.7453 20.244L31.2863 19.359L37.9193 20.554ZM32.9213 26.746C32.4343 27.144 32.8773 28.117 32.8773 28.117C32.2143 27.631 31.4173 26.702 32.1253 26.171C32.8333 25.64 38.0073 24.977 38.0073 24.977C38.0073 24.977 33.4073 26.348 32.9213 26.746Z" fill="#B71C1C"/>
</svg>
