<svg width="48" height="48" viewBox="0 0 48 48" fill="none" xmlns="http://www.w3.org/2000/svg">
<path d="M23.9996 43.7336C34.8984 43.7336 43.7336 34.8984 43.7336 23.9996C43.7336 13.1008 34.8984 4.26562 23.9996 4.26562C13.1008 4.26562 4.26562 13.1008 4.26562 23.9996C4.26562 34.8984 13.1008 43.7336 23.9996 43.7336Z" fill="url(#paint0_linear_173_57)"/>
<path d="M19.0152 16.0234H15.9922V32.0194H19.0152V16.0234Z" fill="white"/>
<path d="M31.9843 15.9531H29.0312V30.5431H31.9843V15.9531Z" fill="url(#paint1_linear_173_57)"/>
<path d="M36.7812 38.0904L34.1682 39.0864L15.9922 16.0234H19.5082L36.7812 38.0904Z" fill="url(#paint2_linear_173_57)"/>
<defs>
<linearGradient id="paint0_linear_173_57" x1="23.9996" y1="43.7336" x2="23.9996" y2="4.26562" gradientUnits="userSpaceOnUse">
<stop stop-color="#0A070A"/>
<stop offset="0.465" stop-color="#2B2B2B"/>
<stop offset="1" stop-color="#4B4B4B"/>
</linearGradient>
<linearGradient id="paint1_linear_173_57" x1="30.5083" y1="33.0171" x2="30.5083" y2="18.4271" gradientUnits="userSpaceOnUse">
<stop offset="0.377" stop-color="white" stop-opacity="0"/>
<stop offset="0.666" stop-color="white" stop-opacity="0.3"/>
<stop offset="0.988" stop-color="white"/>
</linearGradient>
<linearGradient id="paint2_linear_173_57" x1="22.1022" y1="21.4394" x2="36.6612" y2="40.5254" gradientUnits="userSpaceOnUse">
<stop offset="0.296" stop-color="white"/>
<stop offset="0.521" stop-color="white" stop-opacity="0.5"/>
<stop offset="0.838" stop-color="white" stop-opacity="0"/>
</linearGradient>
</defs>
</svg>
