<svg width="48" height="48" viewBox="0 0 48 48" fill="none" xmlns="http://www.w3.org/2000/svg">
<path d="M24.007 45.4166C23.433 45.4166 22.864 45.2666 22.361 44.9766L17.121 41.8736C16.338 41.4356 16.72 41.2806 16.978 41.1916C18.022 40.8266 18.233 40.7436 19.347 40.1106C19.464 40.0436 19.617 40.0676 19.737 40.1386L23.763 42.5276C23.908 42.6066 24.115 42.6066 24.249 42.5276L39.946 33.4666C40.091 33.3836 40.186 33.2156 40.186 33.0426V14.9296C40.186 14.7486 40.092 14.5876 39.943 14.4976L24.253 5.44362C24.108 5.35762 23.915 5.35762 23.77 5.44362L8.082 14.4966C7.93 14.5826 7.833 14.7516 7.833 14.9246V33.0386C7.833 33.2116 7.927 33.3766 8.077 33.4586L12.376 35.9416C14.71 37.1086 16.136 35.7336 16.136 34.3506V16.4736C16.136 16.2186 16.336 16.0216 16.592 16.0216H18.58C18.828 16.0216 19.032 16.2176 19.032 16.4736V34.3596C19.032 37.4716 17.335 39.2596 14.384 39.2596C13.476 39.2596 12.761 39.2596 10.765 38.2776L6.647 35.9046C5.629 35.3146 5 34.2136 5 33.0396V14.9256C5 13.7466 5.629 12.6466 6.646 12.0646L22.36 2.99962C23.354 2.43762 24.674 2.43762 25.661 2.99962L41.355 12.0686C42.367 12.6536 43 13.7506 43 14.9296V33.0436C43 34.2186 42.367 35.3146 41.354 35.9046L25.66 44.9686C25.157 45.2596 24.587 45.4086 24.006 45.4086" fill="#21A366"/>
<path d="M28.8549 32.9387C21.9869 32.9387 20.5469 29.7857 20.5469 27.1417C20.5469 26.8907 20.7499 26.6897 21.0019 26.6897H23.0299C23.2539 26.6897 23.4429 26.8527 23.4779 27.0737C23.7839 29.1397 24.6959 30.1817 28.8489 30.1817C32.1569 30.1817 33.5639 29.4347 33.5639 27.6797C33.5639 26.6697 33.1629 25.9197 28.0239 25.4167C23.7249 24.9927 21.0689 24.0457 21.0689 20.6077C21.0689 17.4407 23.7409 15.5547 28.2159 15.5547C33.2419 15.5547 35.7329 17.2997 36.0469 21.0477C36.0589 21.1777 36.0119 21.3027 35.9249 21.3977C35.8389 21.4877 35.7169 21.5427 35.5909 21.5427H33.5519C33.3399 21.5427 33.1549 21.3937 33.1119 21.1887C32.6209 19.0157 31.4339 18.3207 28.2079 18.3207C24.5969 18.3207 24.1769 19.5777 24.1769 20.5207C24.1769 21.6637 24.6719 21.9977 29.5439 22.6427C34.3689 23.2827 36.6599 24.1867 36.6599 27.5777C36.6599 30.9957 33.8069 32.9567 28.8329 32.9567" fill="#21A366"/>
</svg>
