<svg width="48" height="48" viewBox="0 0 48 48" fill="none" xmlns="http://www.w3.org/2000/svg">
<path d="M39.7269 38.0051L24.0417 5.95312L15.7969 44.5901L39.7269 38.0051Z" fill="white"/>
<path d="M41.9278 36.603L25.7506 3.68017C24.9169 1.98374 22.4972 1.84413 21.4649 3.43287L3.52481 31.0301C3.13792 31.6251 3.14916 32.3861 3.55291 32.9701L12.5899 46.0405C13.1511 46.8518 14.1825 47.2177 15.1464 46.9476L40.4336 39.8526C41.8547 39.4538 42.5676 37.9043 41.9278 36.603ZM38.3549 37.7866L17.0874 43.5986C16.5946 43.7336 16.1319 43.3084 16.2387 42.8202L23.7787 8.47924C23.9146 7.86054 24.7755 7.76016 25.0565 8.3305L38.961 36.5108C39.2036 37.0273 38.916 37.6333 38.3549 37.7866Z" fill="black"/>
<path d="M26.0351 4.28028C24.5424 1.28226 22.6812 1.51308 20.5039 4.92298L4.30731 29.899C3.0543 32.1432 3.24473 32.4667 4.30731 33.9985L12.001 45.1236C12.9181 46.7885 14.4097 47.1884 15.6939 46.7885L40.0727 39.9504C42.1993 39.4477 42.3591 37.5622 41.8919 36.5661L26.0351 4.28028Z" stroke="white"/>
</svg>
