<svg width="49" height="48" viewBox="0 0 49 48" fill="none" xmlns="http://www.w3.org/2000/svg">
<mask id="mask0_314_2" style="mask-type:luminance" maskUnits="userSpaceOnUse" x="0" y="0" width="49" height="48">
<path d="M48.25 0H0.25V48H48.25V0Z" fill="white"/>
</mask>
<g mask="url(#mask0_314_2)">
<mask id="mask1_314_2" style="mask-type:luminance" maskUnits="userSpaceOnUse" x="0" y="0" width="49" height="48">
<path d="M48.25 0H0.25V48H48.25V0Z" fill="white"/>
</mask>
<g mask="url(#mask1_314_2)">
<path d="M35.6639 33.3665L35.6824 33.3482C36.5032 32.5449 35.8519 32.3225 35.3098 32.3955C34.7499 32.4736 33.6971 32.664 33.2346 32.8384C32.5558 33.0088 31.3627 33.472 30.544 33.6905C29.8951 33.8637 27.6907 34.2806 26.3081 34.5221C25.6707 34.6334 22.6569 34.9836 21.151 34.9786C20.1232 34.9753 17.5353 34.8006 16.3299 34.4893C15.5816 34.2961 14.2976 33.7649 13.3221 33.1668C12.7597 32.822 12.7678 32.8443 12.1403 32.22C11.799 31.8803 11.6647 31.6911 11.1796 31.0689C10.9193 30.7349 10.5105 29.9562 10.1395 29.2967C9.94784 28.9559 9.56452 28.2537 9.56479 28.1719L9.55906 28.1945C9.37911 28.9043 9.15864 29.7739 9.09284 30.997C8.99124 32.8858 8.98696 34.1898 8.9845 34.9387C8.97531 37.74 9.47538 39.6407 9.7433 40.4528C10.213 41.8767 10.5674 42.573 11.0918 43.2546C12.0823 44.5418 13.2633 45.0117 13.965 45.1016C15.6682 45.3199 16.3432 45.2425 18.0157 44.7984C19.7894 44.3475 21.4482 43.522 22.8211 42.8015C23.7515 42.3132 25.2074 41.5245 26.6439 40.602C27.9916 39.7365 29.1137 38.8828 30.5437 37.8175C33.0235 35.9699 34.9428 34.0775 35.6639 33.3665Z" fill="#800404"/>
<path d="M11.8897 29.3607L11.897 29.3857C12.2172 30.4887 12.7209 30.0198 12.9128 29.5076C13.1085 28.9772 13.4383 27.9594 13.5031 27.4693C13.6737 26.7906 13.8293 25.5203 14.0236 24.6955C14.1776 24.0417 14.8518 21.902 15.2923 20.5694C15.4954 19.955 16.611 17.1335 17.3269 15.8087C17.8156 14.9045 19.1924 12.7062 20.0364 11.791C20.5603 11.2228 21.6352 10.3423 22.6232 9.76521C23.1928 9.4325 23.1694 9.42904 24.0161 9.17109C24.4768 9.03075 24.707 9.0018 25.4846 8.8684C25.9019 8.7968 26.7814 8.80446 27.5379 8.78921C27.9288 8.78133 28.7288 8.7753 28.8008 8.81421L28.7836 8.79849C28.2431 8.30449 27.5808 7.69924 26.534 7.06328C24.9174 6.08117 23.7702 5.4612 23.1113 5.10515C20.6469 3.77334 18.7355 3.31584 17.8932 3.16821C16.4163 2.90937 15.6352 2.89256 14.7867 3.0327C13.1843 3.29738 12.2121 4.11607 11.8012 4.69205C10.8041 6.0899 10.5532 6.7214 10.1543 8.40523C9.71355 10.1815 9.65715 12.0335 9.64341 13.5838C9.6341 14.6346 9.64119 16.2904 9.77537 17.9923C9.90127 19.589 10.1234 20.9814 10.3866 22.745C10.843 25.8036 11.6038 28.3893 11.8897 29.3607Z" fill="#820100"/>
<path d="M26.8676 10.5645L26.8426 10.557C25.7429 10.2255 25.8623 10.9033 26.1877 11.343C26.5262 11.7958 27.2007 12.6262 27.5766 12.9473C28.0533 13.4597 29.0345 14.2814 29.6208 14.8932C30.0855 15.3781 31.5139 17.108 32.3923 18.2027C32.7973 18.7074 34.5576 21.1786 35.2796 22.5001C35.7724 23.4021 36.8676 25.7533 37.1763 26.9593C37.368 27.7081 37.5219 29.0891 37.4685 30.232C37.4378 30.891 37.4534 30.8732 37.2091 31.724C37.0762 32.1868 36.9753 32.3957 36.6641 33.1207C36.4971 33.5098 36.0122 34.2436 35.6134 34.8866C35.4072 35.2189 34.9771 35.8933 34.9052 35.9326L34.9278 35.9267C35.6364 35.742 36.5045 35.5156 37.6076 34.9834C39.3113 34.1613 40.4556 33.5361 41.1128 33.1771C43.5711 31.834 44.995 30.4792 45.5772 29.8528C46.5979 28.7546 47.037 28.1083 47.3811 27.3202C48.0309 25.8317 47.873 24.5705 47.6133 23.9124C46.983 22.3152 46.5896 21.7612 45.3939 20.5103C44.1434 19.174 42.6202 18.1191 41.3269 17.264C40.4504 16.6845 39.0573 15.7895 37.5563 14.9761C36.1481 14.2129 34.8591 13.6417 33.2361 12.9029C30.4216 11.6217 27.8382 10.8532 26.8676 10.5645Z" fill="#820100"/>
<path d="M13.4365 14.7859L13.418 14.8043C12.5999 15.6104 13.2519 15.8306 13.7938 15.7559C14.3535 15.6759 15.4056 15.4821 15.8676 15.3061C16.5458 15.1335 17.7373 14.6664 18.5553 14.4452C19.2037 14.2699 21.4066 13.8458 22.7885 13.5997C23.4255 13.4863 26.4382 13.1263 27.944 13.1263C28.9718 13.1263 31.5603 13.2924 32.7667 13.5997C33.5157 13.7905 34.8014 14.3175 35.7788 14.9124C36.3423 15.2553 36.3342 15.2331 36.9637 15.8553C37.3062 16.1938 37.4411 16.3826 37.9282 17.0033C38.1896 17.3364 38.601 18.1138 38.974 18.772C39.1669 19.1122 39.5525 19.8131 39.5525 19.8949L39.5581 19.8723C39.7358 19.162 39.9534 18.2916 40.0152 17.0683C40.1106 15.1791 40.1106 13.8751 40.1106 13.1263C40.1106 10.325 39.6043 8.42587 39.3337 7.61468C38.8593 6.19237 38.5027 5.49718 37.976 4.81736C36.9813 3.53342 35.7988 3.06736 35.0967 2.97974C33.3929 2.7671 32.7181 2.84668 31.0471 3.29624C29.2749 3.75301 27.6188 4.58389 26.2483 5.3089C25.3195 5.80026 23.8662 6.59374 22.4327 7.52092C21.0878 8.39082 19.9685 9.24823 18.5421 10.3182C16.0683 12.1739 14.1553 14.0726 13.4365 14.7859Z" fill="#BF0100"/>
<path d="M37.4025 18.8125L37.3965 18.7871C37.14 17.6676 36.6104 18.107 36.3895 18.6074C36.1637 19.1257 35.7763 20.123 35.6836 20.6085C35.4745 21.2764 35.2462 22.5358 35.0051 23.3481C34.8139 23.9919 34.0184 26.0896 33.5023 27.3948C33.2645 27.9966 31.9895 30.7497 31.1989 32.0313C30.6593 32.9061 29.1589 35.022 28.264 35.8874C27.7084 36.4247 26.5849 37.2423 25.5655 37.7619C24.9778 38.0615 25.0011 38.0663 24.141 38.2754C23.6731 38.3891 23.4416 38.4049 22.6576 38.4936C22.2369 38.5412 21.3593 38.4832 20.6032 38.4552C20.2124 38.4407 19.4134 38.4009 19.3438 38.358L19.36 38.3747C19.8714 38.8988 20.4978 39.5409 21.5065 40.2357C23.0644 41.3087 24.1743 41.9933 24.8117 42.3864C27.1959 43.857 29.078 44.4231 29.9104 44.6187C31.37 44.9616 32.149 45.0231 33.0041 44.9317C34.6191 44.7591 35.6365 43.9974 36.0797 43.4459C37.1552 42.1074 37.4416 41.4912 37.9362 39.833C38.4778 38.0849 38.6401 36.2391 38.7425 34.6921C38.8119 33.6436 38.8996 31.9901 38.8629 30.2833C38.8286 28.682 38.6866 27.2792 38.5247 25.5034C38.2441 22.4238 37.6323 19.7988 37.4025 18.8125Z" fill="#EC0000"/>
<path d="M21.8894 37.6762L21.9145 37.6833C23.0189 37.9985 22.8895 37.3226 22.5577 36.8877C22.2125 36.44 21.5258 35.6196 21.1452 35.3042C20.661 34.7989 19.6678 33.9917 19.0725 33.3887C18.6007 32.9107 17.1469 31.202 16.2524 30.1204C15.84 29.6218 14.0433 27.1769 13.3019 25.8662C12.7958 24.9716 11.6659 22.6368 11.3394 21.4355C11.1367 20.6896 10.9624 19.3111 10.9989 18.1675C11.0199 17.5082 11.0046 17.5262 11.2362 16.6719C11.3623 16.2071 11.4601 15.9967 11.7605 15.2672C11.9218 14.8757 12.3958 14.1348 12.7851 13.486C12.9863 13.1507 13.4064 12.47 13.4777 12.4297L13.4552 12.4359C12.7494 12.6311 11.8847 12.8702 10.7896 13.4187C9.09827 14.2658 7.96329 14.9079 7.31146 15.2766C4.87328 16.6558 3.46958 18.0316 2.89675 18.6665C1.89237 19.7797 1.46286 20.4324 1.13047 21.2255C0.502707 22.7235 0.679258 23.9821 0.948661 24.6363C1.60248 26.224 2.004 26.7722 3.21805 28.0053C4.48817 29.3229 6.02677 30.3553 7.33258 31.1911C8.21756 31.7576 9.62377 32.6319 11.1366 33.4231C12.5559 34.1653 13.8533 34.7174 15.4869 35.4321C18.3201 36.6716 20.9146 37.4019 21.8894 37.6762Z" fill="#F00000"/>
<path d="M24.1404 28.3982C26.5135 28.3982 28.4373 26.4745 28.4373 24.1015C28.4373 21.7284 26.5135 19.8047 24.1404 19.8047C21.7674 19.8047 19.8438 21.7284 19.8438 24.1015C19.8438 26.4745 21.7674 28.3982 24.1404 28.3982Z" fill="#CF090B"/>
</g>
</g>
</svg>
