<svg width="49" height="49" viewBox="0 0 49 49" fill="none" xmlns="http://www.w3.org/2000/svg">
<path d="M24.25 34.2656C11.35 34.2656 1.25 29.8656 1.25 24.2656C1.25 18.6656 11.35 14.2656 24.25 14.2656C37.15 14.2656 47.25 18.6656 47.25 24.2656C47.25 29.8656 37.15 34.2656 24.25 34.2656ZM24.25 16.2656C11.65 16.2656 3.25 20.3656 3.25 24.2656C3.25 28.1656 11.65 32.2656 24.25 32.2656C36.85 32.2656 45.25 28.1656 45.25 24.2656C45.25 20.3656 36.85 16.2656 24.25 16.2656Z" fill="#80DEEA"/>
<path d="M15.3496 44.8636C14.3496 44.8636 13.5496 44.6636 12.7496 44.1636C7.84959 41.3636 9.14959 30.4636 15.5496 19.2636C18.5496 14.0636 22.2496 9.66363 25.8496 6.86363C29.7496 3.86363 33.2496 2.96363 35.6496 4.36363C38.1496 5.76363 39.0496 9.26363 38.4496 14.1636C37.8496 18.7636 35.8496 24.1636 32.8496 29.3636C29.8496 34.5636 26.1496 38.9636 22.5496 41.7636C19.9496 43.7636 17.4496 44.8636 15.3496 44.8636ZM33.1496 5.66363C31.5496 5.66363 29.4496 6.56363 27.1496 8.36363C23.7496 11.0636 20.2496 15.2636 17.3496 20.2636C11.0496 31.1636 10.4496 40.5636 13.7496 42.4636C15.4496 43.4636 18.2496 42.5636 21.3496 40.1636C24.7496 37.4636 28.2496 33.2636 31.1496 28.2636C34.0496 23.2636 35.9496 18.1636 36.5496 13.8636C37.0496 9.86363 36.4496 7.06363 34.7496 6.06363C34.2496 5.86363 33.7496 5.66363 33.1496 5.66363Z" fill="#80DEEA"/>
<path d="M33.2505 44.8676C28.2505 44.8676 21.0505 38.7676 15.6505 29.2676C9.15054 18.0676 7.85054 7.16765 12.7505 4.36765C17.6505 1.56765 26.4505 8.06765 32.9505 19.2676C35.9505 24.4676 37.9505 29.8676 38.5505 34.4676C39.2505 39.3676 38.2505 42.7676 35.7505 44.2676C34.9505 44.6676 34.1505 44.8676 33.2505 44.8676ZM13.7505 6.06765C10.4505 7.96765 11.0505 17.3676 17.3505 28.2676C23.6505 39.1676 31.4505 44.3676 34.7505 42.4676C36.4505 41.4676 37.0505 38.6677 36.5505 34.6677C35.9505 30.3677 34.0505 25.2676 31.1505 20.2676C24.8505 9.36765 17.0505 4.16765 13.7505 6.06765Z" fill="#80DEEA"/>
<path d="M24.25 28.2656C26.4591 28.2656 28.25 26.4748 28.25 24.2656C28.25 22.0565 26.4591 20.2656 24.25 20.2656C22.0409 20.2656 20.25 22.0565 20.25 24.2656C20.25 26.4748 22.0409 28.2656 24.25 28.2656Z" fill="#80DEEA"/>
</svg>
