<svg width="48" height="48" viewBox="0 0 48 48" fill="none" xmlns="http://www.w3.org/2000/svg">
<path d="M23 4C16.383 4 11 11.27 11 20.205C11 25.039 12.582 29.374 15.078 32.341C15.03 32.554 15 32.773 15 33C15 34.657 16.343 36 18 36C19.657 36 21 34.657 21 33C21 31.343 19.657 30 18 30C17.685 30 17.388 30.062 17.103 30.152C15.206 27.731 14 24.175 14 20.205C14 12.924 18.037 7 23 7C26.837 7 30.111 10.547 31.404 15.518C32.526 15.864 33.641 16.3 34.734 16.826C33.579 9.508 28.759 4 23 4Z" fill="#7E57C2"/>
<path d="M35.507 20.084C31.56 17.692 27.133 16.642 23.325 17.125C22.775 16.444 21.943 16 21 16C19.343 16 18 17.343 18 19C18 20.657 19.343 22 21 22C22.272 22 23.353 21.205 23.789 20.088C26.907 19.709 30.601 20.619 33.952 22.651C40.355 26.532 43.622 33.22 41.234 37.562C40.407 39.066 38.948 40.134 37.016 40.652C34.73 41.263 32.009 41.046 29.289 40.124C28.45 40.896 27.54 41.622 26.564 42.292C29.116 43.409 31.76 43.996 34.233 43.996C35.473 43.996 36.671 43.849 37.792 43.549C40.533 42.816 42.633 41.245 43.863 39.007C47.016 33.276 43.267 24.787 35.507 20.084Z" fill="#7E57C2"/>
<path d="M35.0027 28.994C35.0027 27.342 33.6597 26.002 32.0027 26.002C30.3457 26.002 29.0027 27.342 29.0027 28.994C29.0027 29.663 29.2307 30.275 29.6027 30.773C28.3237 33.575 25.8587 36.34 22.5407 38.351C18.6757 40.695 14.3557 41.553 10.9857 40.653C9.05366 40.135 7.59466 39.067 6.76766 37.563C5.06566 34.469 6.24666 30.187 9.37766 26.575C9.05466 25.431 8.81566 24.235 8.67166 23C3.60166 27.797 1.56266 34.323 4.13966 39.009C5.36966 41.247 7.46966 42.818 10.2107 43.551C11.3317 43.851 12.5287 43.998 13.7697 43.998C17.1157 43.998 20.7767 42.93 24.0957 40.918C27.9317 38.593 30.7787 35.341 32.3047 31.956C33.8177 31.803 35.0027 30.543 35.0027 28.994Z" fill="#7E57C2"/>
</svg>
