<svg width="49" height="48" viewBox="0 0 49 48" fill="none" xmlns="http://www.w3.org/2000/svg">
<g clip-path="url(#clip0_217_38)">
<path d="M14.1206 18.8102C14.1206 18.1611 14.5931 18.2557 14.8506 18.4535C14.8506 18.4535 15.2917 18.9558 15.5708 19.1594C16.2125 19.6275 16.5065 19.7278 17.2605 19.9778C18.4349 20.3671 19.0745 20.329 20.3093 20.2493C21.1828 20.1929 21.835 20.0751 22.6877 19.8774C24.02 19.5686 24.785 19.3478 26.0391 18.8023C27.2791 18.211 27.7238 17.9523 28.916 17.2178C29.7538 16.7016 30.2021 16.3474 31.0507 15.5487C31.9496 14.6058 32.423 14.0006 33.0054 12.8352C33.5695 11.7062 33.8021 10.9825 33.7304 9.68583C33.6394 8.81232 33.5964 8.51054 33.0054 7.84658C32.306 7.06083 31.4291 6.84413 30.4275 6.52276C29.2152 6.13379 28.4126 6.11859 27.1396 6.14298C25.1749 6.18061 24.4 6.44442 22.3297 6.8843C19.3326 7.79109 17.9525 8.39417 15.3354 9.75522C13.3248 10.8008 12.4112 11.412 10.6602 12.7218C9.392 13.6705 8.18625 14.7094 7.71149 15.3472C7.23672 15.985 6.60499 16.625 6.12499 17.7248C5.23085 19.7736 5.38328 21.219 5.75194 22.1576C6.01956 22.839 6.3399 23.3922 6.85918 24.0471C7.56778 24.9407 8.15709 25.2411 8.99416 26.0157C9.75052 26.7156 11.0061 27.723 11.0061 27.723C11.0061 27.723 11.9185 28.4045 12.487 28.9155C12.7978 29.1948 13.0472 29.3982 13.3581 29.6776C13.7045 29.989 14.2341 30.4851 14.2341 30.4851C14.2341 30.4851 15.2364 29.8185 15.7372 29.5422C16.2379 29.2659 16.7436 29.0292 17.4075 28.7374C17.9358 28.5052 18.2593 28.3823 18.7877 28.1501C19.6943 27.7515 19.9369 27.7821 21.0936 27.1494C21.4227 26.9694 21.5443 26.7992 21.7556 26.5782C21.967 26.3573 22.0818 26.202 22.334 26.1445C22.5584 26.0934 22.6756 26.1001 22.9463 26.204C23.1039 26.2645 23.2443 26.3254 23.3574 26.4507C23.5432 26.6565 23.6749 27.0205 23.6749 27.0205C23.6749 27.0205 23.9959 26.4884 24.1398 26.2318C24.2991 25.9476 24.3231 25.7932 24.5958 25.5021C24.7425 25.3455 24.8504 25.2964 25.0423 25.3455C25.4445 25.4485 25.5579 25.7586 25.7849 26.1063C26.2317 26.7905 26.2054 27.3515 26.1676 28.1577L26.1653 28.2074C26.1347 28.8637 26.0248 29.226 25.7918 29.8478C25.4287 30.3614 25.1913 30.6646 25.0423 31.2503C24.9055 31.7879 24.8974 32.6632 24.8974 32.6632C24.5709 32.6632 23.9871 32.5976 23.4664 32.1151C22.8043 31.3645 22.6091 30.7401 22.4702 30.1455C22.4702 30.1455 21.9873 30.7385 21.7276 31.1523C21.1787 32.0271 20.9813 32.5946 20.6952 33.5869C20.453 34.4265 20.3481 34.8031 20.2967 35.7886C20.2393 36.8894 20.5545 37.3507 21.0212 37.7529C21.5723 38.2279 21.7944 38.1227 22.4702 37.5621C22.9472 37.1664 23.6325 36.3798 24.2865 35.5771C25.0606 34.627 25.4882 34.0486 26.1653 33.0271C26.8424 32.0057 27.7773 30.4213 27.7773 30.4213C28.4134 29.1749 28.579 28.8436 29.2305 27.501C29.8628 26.3589 30.308 25.0048 30.4212 24.4132C30.4996 24.0035 30.5791 23.5754 30.6321 23.0456C30.6643 22.7235 30.7507 22.2478 31.4587 22.7128C31.8184 22.949 32.3646 23.2371 32.849 23.7004C33.3229 24.1538 33.6931 24.3701 33.8585 25.0048C33.9379 25.3097 33.9325 25.7621 33.8585 26.238C33.8132 26.5287 33.7368 26.7294 33.6732 26.9683L33.4549 27.9601C33.3481 29.0567 33.3475 28.5132 33.3573 29.6149C33.3655 30.5339 33.418 32.1151 33.418 32.1151C33.418 32.1151 34.465 31.8438 34.9055 31.5653C35.4318 31.3182 35.6523 31.1516 36.0999 30.7527C36.4275 30.4607 37.1141 29.7191 37.2743 29.5161C37.727 28.9422 37.8807 28.5075 38.292 27.6875C38.6857 26.9028 38.8611 26.4419 39.2097 25.6362C39.5806 24.7789 39.9625 23.7697 40.0633 23.3712C40.2045 22.8136 40.292 22.1022 40.292 21.7979C40.292 21.4936 40.3658 21.0947 41.2049 21.5087C41.5168 21.6901 41.7485 21.7279 42.2767 22.2002C42.983 22.8318 43.5869 23.4053 43.5869 23.7854C43.6318 24.2174 43.5226 24.7459 43.4656 25.1765C43.3307 26.1945 43.2084 26.7483 43.1371 27.7727C43.056 28.9383 43.1427 30.8649 43.1427 30.8649C43.1427 30.8649 44.1458 30.5427 45.0941 29.8653C45.5967 29.5062 45.8585 29.2979 46.3091 28.8755C46.8386 28.3792 47.0527 28.0272 47.4842 27.3923C47.6445 27.1025 47.7123 26.9735 47.8246 26.7668C48.3308 25.8344 48.7765 26.4301 48.5891 27.1025C48.5319 27.3923 48.4075 27.6471 48.2251 27.9791C47.9347 28.5078 47.7137 28.7595 47.345 29.237C46.9019 29.8108 46.678 29.9686 46.1799 30.3484L46.1199 30.3942C45.5651 30.8174 45.3511 30.9807 44.6224 31.3047C44.1806 31.5011 43.393 31.7374 43.393 31.7374C43.393 31.7374 43.542 32.9201 43.393 33.6854C43.2716 34.3094 43.263 34.6353 42.9438 35.1851L40.7457 34.0766C40.7457 34.0766 40.8536 33.8827 40.8894 33.7301C40.9579 33.5337 40.9852 33.2587 40.9852 33.2587L41.0155 32.8594V32.6563C41.0155 32.6563 40.6926 32.6858 40.4795 32.768C40.3286 32.8345 40.2467 32.8666 40.1069 32.9473C39.9257 33.0449 39.6484 33.2587 39.6484 33.2587L39.1528 32.5166C39.6546 32.2327 40.2085 31.9846 40.845 31.6436C40.845 31.6436 40.8197 30.8679 40.8075 30.4213C40.7812 29.4569 40.7807 28.9068 40.5949 27.9601C40.4493 27.2181 40.1927 25.851 40.1927 25.851C40.1927 25.851 39.5045 27.2343 39.142 27.9601C38.7303 28.7846 38.6221 29.3225 38.0789 30.0669C37.3694 31.0393 36.8044 31.4904 35.7755 32.1151C35.0155 32.5765 33.6894 33.0271 33.6894 33.0271V34.8766C33.6709 35.2839 33.5905 35.5803 33.4467 36.0069L31.0541 35.2846L31.2111 34.8766L31.3552 34.2563L31.3209 33.8583L30.9436 33.9645C30.9436 33.9645 30.6237 34.0932 30.4321 34.2013C30.1955 34.3144 29.8731 34.5881 29.8731 34.5881L29.0791 34.0133C29.4385 33.7513 30.2479 33.3479 31.1306 32.9382C31.1784 32.3334 31.1715 31.7842 31.1306 31.1523L31.1286 31.122C31.0696 30.2107 31.0356 29.6849 30.8622 28.7422C30.7435 28.0971 30.5545 27.033 30.5545 27.033C30.5545 27.033 30.2486 27.6486 30.1172 27.9601C29.8412 28.6145 29.576 29.2074 29.2305 29.8478C28.7849 30.6736 28.7268 30.6966 28.2891 31.4389C27.7661 32.3257 27.4185 32.9368 26.8393 33.788C26.2681 34.6275 25.8863 35.0217 25.2822 35.9223C24.8123 36.623 24.4222 37.1176 23.8295 37.7941C23.4301 38.25 23.0894 38.5512 22.4341 39.0018C21.8318 39.416 21.4545 39.5928 20.782 39.6218C20.1124 39.6507 19.5606 39.339 19.1167 39.1114C18.6728 38.8837 17.985 38.0762 17.7896 37.5621C17.4499 36.6687 17.3353 36.2144 17.3353 35.2524C17.3638 34.2665 17.5635 33.666 17.8519 32.7228C18.2135 31.5406 19.2948 29.8013 19.2948 29.8013C19.2948 29.8013 18.3003 30.1455 17.175 30.7989C16.4465 31.222 15.3657 31.997 15.3657 31.997C15.3657 31.997 15.5982 32.4908 15.7608 33.2891C15.7635 33.3021 15.7661 33.3154 15.7688 33.3289C15.9045 34.0075 16.031 34.943 16.031 35.2524V35.2769L14.219 34.279L13.7115 33.1063L13.6264 32.7989L13.1189 33.3048L11.6344 31.8446L12.0721 31.5894L12.046 31.5653C11.3342 31.0628 10.1534 30.2914 9.44636 29.8179C7.47146 28.4955 6.5439 27.8848 5.60248 27.0548C4.36534 25.9641 3.27232 24.834 2.83519 24.3104L2.83498 24.3102C2.25149 23.6113 1.61428 22.8481 1.30054 21.4872C0.948507 19.9601 1.09622 19.0901 1.48858 17.8851C2.04577 16.083 3.40695 14.0266 4.36297 13.0773C6.76285 10.6941 8.24409 9.40745 12.3205 7.10986C14.5355 5.86141 17.9479 4.40411 19.3326 3.9722C20.5492 3.59272 23.6662 2.75781 25.5857 2.75781C26.7854 2.76587 27.941 2.71893 29.5882 2.92149C31.2771 3.13256 32.3379 3.58465 33.1565 3.9722C34.4298 4.57502 35.0822 5.07594 35.8734 6.09128C37.2757 7.89079 37.1041 10.3613 36.7419 11.4887C36.2547 13.0051 36.0549 13.581 35.4808 14.5777C34.7705 15.8109 33.3108 17.5652 32.3068 18.3339C31.2457 19.1462 30.0244 19.9216 29.0857 20.386C28.1955 20.864 27.4731 21.0777 26.1773 21.4612L26.0652 21.4944C24.9521 21.7773 24.1332 21.8628 22.1786 22.1452C20.8018 22.3441 19.5395 22.4246 17.9696 21.9305C16.7531 21.5476 15.7058 20.8797 15.1051 20.3626C14.6128 19.9388 14.1206 19.3757 14.1206 18.8102Z" fill="#CF649B"/>
<path d="M11.3902 31.99C11.746 31.7798 12.3067 31.4531 12.3067 31.4531L13.6371 31.8989L14.1433 32.5412C14.1433 32.5412 13.5817 33.0033 13.2027 33.2737C12.9814 33.4315 12.8534 33.5145 12.6262 33.6638C12.2887 33.8856 12.0932 34.0003 11.7507 34.2142C11.5005 34.3705 11.3569 34.4529 11.1092 34.613C10.8 34.8128 10.329 35.1418 10.329 35.1418C10.329 35.1418 9.79406 35.5145 9.46312 35.7692C9.15154 36.0089 8.97069 36.1374 8.68221 36.4044C8.42254 36.6448 8.28581 36.79 8.05381 37.0572C7.86801 37.2712 7.76411 37.3925 7.60097 37.6242C7.42765 37.8704 7.34391 38.0181 7.19853 38.2817C7.03215 38.5834 6.93238 38.7521 6.81309 39.0753C6.72299 39.3194 6.67623 39.4598 6.62949 39.7158C6.59113 39.9259 6.58149 40.0465 6.57502 40.26C6.56573 40.5663 6.54723 40.666 6.62949 41.0429C6.70287 41.379 6.77256 41.4232 7.02848 41.6487C7.41234 41.8732 7.703 41.8414 7.703 41.8414C7.703 41.8414 8.40462 41.844 8.83664 41.7394C9.18154 41.6558 9.36143 41.5607 9.68854 41.4232C10.0098 41.288 10.496 41.0429 10.496 41.0429C10.496 41.0429 11.0648 40.6717 11.3998 40.3958L11.4116 40.386C11.6625 40.1795 11.8081 40.0595 12.0316 39.8177C12.3054 39.5215 12.4378 39.3338 12.6525 38.9925C12.8276 38.7141 12.9332 38.5239 13.0834 38.2314C13.2103 37.9842 13.2546 37.8674 13.366 37.613C13.5091 37.2863 13.5812 37.0984 13.6832 36.7567C13.7867 36.4098 13.8346 36.2108 13.8893 35.8529C13.9569 35.4113 13.9663 35.1579 13.9607 34.7112C13.9542 34.201 13.9184 33.8786 13.7811 33.3872C13.7398 33.2393 13.6738 32.9474 13.6738 32.9474L13.8735 32.8957L14.6351 32.1701L15.5258 32.4339C15.5258 32.4339 15.7645 33.1999 15.8906 33.6362C15.9653 33.8949 16.0522 34.3432 16.0522 34.6482V35.3037V36.2087C16.0522 36.751 16.0064 37.0746 15.9414 37.613C15.883 38.0965 15.8392 38.3855 15.6863 38.848C15.5386 39.2948 15.434 39.5492 15.2427 39.9791C15.0286 40.4604 14.892 40.6173 14.6147 41.0651C14.2713 41.6196 13.9921 41.8743 13.5299 42.3345C13.071 42.7914 12.7584 43.0676 12.2906 43.4402C11.8228 43.8128 11.7628 43.7854 11.4423 43.9952C11.0738 44.2365 10.8688 44.3379 10.4738 44.5328C9.97215 44.7804 9.67066 44.893 9.12438 45.0137C8.51331 45.1486 8.12734 45.2093 7.50196 45.232C6.9511 45.252 6.66329 45.197 6.11526 45.1378C5.8222 45.1061 5.66514 45.0984 5.38794 44.9981C5.13377 44.9062 4.94084 44.8538 4.6875 44.7378C4.46029 44.6338 4.36843 44.5381 4.14726 44.3313C3.93404 44.0913 3.76409 43.8756 3.64959 43.6596C3.47801 43.336 3.39851 43.2792 3.26383 42.8806C3.14426 42.5267 3.03544 42.231 3.00963 41.8584C2.98661 41.526 2.97656 41.3199 2.97656 40.9741C2.97649 40.5717 3.02246 40.2702 3.06349 40.0276C3.11907 39.6988 3.1783 39.5673 3.29599 39.2283C3.42574 38.8547 3.51124 38.5919 3.71168 38.2509C3.93437 37.872 4.04269 37.681 4.33897 37.3166C4.61852 36.9728 4.82451 36.752 5.15351 36.4453C5.48376 36.1375 5.65054 35.9499 6.00452 35.6389C6.35485 35.331 6.55446 35.1066 6.93498 34.8241C7.4022 34.4773 7.66808 34.2691 8.15932 33.9456C8.63082 33.635 8.88974 33.4315 9.379 33.1497C9.74726 32.9377 9.94976 32.8118 10.3218 32.6064C10.7456 32.3723 10.9734 32.2363 11.3902 31.99Z" fill="#CF649B"/>
<path d="M33.7246 33.7488C33.7275 33.4608 33.7246 33.0112 33.7246 33.0112L32.8089 32.9587L31.3413 34.1261C31.3413 34.1261 31.2905 34.303 31.2728 34.3923C31.247 34.5218 31.2427 34.5858 31.2227 34.7187C31.1995 34.8738 31.1646 34.9782 31.1097 35.1286C31.0509 35.2898 31.02 35.3471 30.9317 35.4918C30.8343 35.6517 30.7593 35.8021 30.6866 35.9173C30.6138 36.0325 30.4451 36.2285 30.4163 36.2674C30.3825 36.3129 30.2681 36.4642 30.1681 36.5852C30.054 36.7232 29.9544 36.778 29.8607 36.844C29.7641 36.9121 29.7119 36.929 29.6004 36.9679C29.5248 36.9944 29.4467 37.0026 29.368 37.0175C29.2656 37.0369 29.1574 37.0289 29.0539 37.0175C28.9403 37.005 28.8675 36.9782 28.7689 36.9204C28.7151 36.8889 28.6869 36.8656 28.6459 36.8186C28.5812 36.7445 28.5512 36.6673 28.5339 36.593C28.5101 36.4905 28.49 36.4284 28.49 36.3271C28.49 36.2079 28.4969 36.1438 28.5339 36.054C28.614 35.8596 28.6828 35.7417 28.8113 35.5927C28.9045 35.4848 28.9561 35.4236 29.0539 35.3199C29.2118 35.1524 29.3058 35.0632 29.4782 34.9106C29.6369 34.7701 29.7066 34.6988 29.8985 34.5673C30.0702 34.4496 30.1827 34.3356 30.3653 34.2358C30.5616 34.1285 30.6934 34.0634 30.9088 34.0032C31.0726 33.9575 31.3413 33.9523 31.3413 33.9523L32.2144 32.9246L31.2143 32.8672L30.9581 33.0112C30.9581 33.0112 30.6829 33.1428 30.5074 33.2288C30.2842 33.3382 30.1584 33.3985 29.938 33.5135C29.6242 33.6772 29.5444 33.7199 29.2448 33.9084C28.9659 34.084 28.7904 34.2477 28.5339 34.4546C28.2831 34.6569 28.1264 34.7803 27.9011 35.0834C27.7865 35.2682 27.6823 35.4432 27.6269 35.6603C27.5958 35.8797 27.5968 35.9807 27.5941 36.1754C27.5901 36.4641 27.6233 36.6232 27.7098 36.8602C27.7962 37.0972 27.8536 37.2236 28.0002 37.3847C28.1413 37.5398 28.2601 37.6592 28.4554 37.7995C28.7215 37.9907 28.8945 38.0725 29.2056 38.1754C29.4062 38.2418 29.524 38.2655 29.733 38.2966C30.1288 38.3556 30.3636 38.3667 30.7576 38.2966C31.0674 38.2416 31.2427 38.189 31.5239 38.0478C31.7551 37.9317 31.8749 37.8491 32.0818 37.6937C32.2978 37.5314 32.4082 37.4201 32.6032 37.233C32.7734 37.0695 32.8728 36.9792 33.015 36.7908C33.1523 36.609 33.2169 36.4964 33.3184 36.2924C33.4377 36.0526 33.4886 35.9088 33.5611 35.6509C33.6405 35.3683 33.66 35.1995 33.693 34.9138L33.6955 34.8924C33.7468 34.4486 33.7201 34.1955 33.7246 33.7488Z" fill="#CF649B"/>
<path d="M43.459 32.4598C43.4618 32.1717 43.4604 31.71 43.4604 31.71L42.5433 31.6696L41.0757 32.837C41.0757 32.837 41.0249 33.0139 41.0072 33.1032C40.9814 33.2328 40.977 33.2968 40.9571 33.4297C40.9338 33.5847 40.899 33.6891 40.8441 33.8396C40.7853 34.0007 40.7543 34.058 40.6661 34.2028C40.5687 34.3626 40.4937 34.5131 40.4209 34.6283C40.3482 34.7435 40.1795 34.9395 40.1506 34.9783C40.1168 35.0238 40.0025 35.1752 39.9025 35.2962C39.7883 35.4342 39.6888 35.4889 39.5951 35.5549C39.4985 35.623 39.4463 35.6399 39.3348 35.6789C39.2591 35.7053 39.1811 35.7135 39.1023 35.7285C39 35.7479 38.8918 35.7399 38.7882 35.7285C38.6746 35.716 38.6019 35.6891 38.5033 35.6314C38.4494 35.5998 38.4213 35.5765 38.3802 35.5295C38.3156 35.4554 38.2856 35.3783 38.2683 35.304C38.2444 35.2014 38.2244 35.1393 38.2244 35.038C38.2244 34.9189 38.2313 34.8547 38.2683 34.7649C38.3483 34.5705 38.4172 34.4526 38.5457 34.3036C38.6388 34.1957 38.6904 34.1345 38.7882 34.0308C38.9462 33.8633 39.0402 33.7741 39.2126 33.6215C39.3713 33.4811 39.441 33.4097 39.6329 33.2782C39.8045 33.1606 39.9171 33.0465 40.0997 32.9467C40.2959 32.8395 40.4278 32.7743 40.6432 32.7142C40.807 32.6684 41.1816 32.6368 41.1816 32.6368L41.9488 31.6355L40.9487 31.5781L40.6925 31.7221C40.6925 31.7221 40.4172 31.8537 40.2417 31.9397C40.0186 32.0492 39.8928 32.1094 39.6724 32.2244C39.3585 32.3882 39.2787 32.4308 38.9791 32.6194C38.7003 32.7949 38.5247 32.9587 38.2683 33.1655C38.0175 33.3678 37.8608 33.4912 37.6355 33.7944C37.5208 33.9791 37.4167 34.1542 37.3613 34.3713C37.3301 34.5906 37.3311 34.6916 37.3284 34.8863C37.3244 35.1751 37.3576 35.3342 37.4441 35.5711C37.5306 35.8081 37.588 35.9345 37.7345 36.0956C37.8757 36.2508 37.9944 36.3701 38.1898 36.5104C38.4559 36.7016 38.6288 36.7834 38.9399 36.8863C39.1406 36.9527 39.2583 36.9764 39.4674 37.0076C39.8631 37.0666 40.098 37.0776 40.492 37.0076C40.8018 36.9525 40.9771 36.9 41.2583 36.7588C41.4895 36.6427 41.6093 36.56 41.8161 36.4047C42.0322 36.2424 42.1426 36.1311 42.3376 35.9439C42.5078 35.7805 42.6072 35.6901 42.7493 35.5018C42.8866 35.3199 42.9512 35.2073 43.0528 35.0033C43.1721 34.7635 43.223 34.6197 43.2955 34.3618C43.3749 34.0792 43.3944 33.9104 43.4274 33.6247L43.4298 33.6033C43.4811 33.1595 43.4545 32.9065 43.459 32.4598Z" fill="#CF649B"/>
</g>
<defs>
<clipPath id="clip0_217_38">
<rect width="48" height="48" fill="white" transform="translate(0.867188)"/>
</clipPath>
</defs>
</svg>
