<svg width="48" height="48" viewBox="0 0 48 48" fill="none" xmlns="http://www.w3.org/2000/svg">
<path d="M13.2534 18.8102C13.2534 18.1611 13.7259 18.2557 13.9834 18.4535C13.9834 18.4535 14.4245 18.9558 14.7036 19.1594C15.3453 19.6275 15.6393 19.7278 16.3933 19.9778C17.5678 20.3671 18.2073 20.329 19.4421 20.2493C20.3156 20.1929 20.9678 20.0751 21.8205 19.8774C23.1528 19.5686 23.9179 19.3478 25.1719 18.8023C26.412 18.211 26.8566 17.9523 28.0488 17.2178C28.8866 16.7016 29.3349 16.3474 30.1835 15.5487C31.0824 14.6058 31.5558 14.0006 32.1382 12.8352C32.7023 11.7062 32.935 10.9825 32.8632 9.68583C32.7722 8.81232 32.7292 8.51054 32.1382 7.84658C31.4388 7.06083 30.5619 6.84413 29.5603 6.52276C28.348 6.13379 27.5454 6.11859 26.2725 6.14298C24.3077 6.18061 23.5328 6.44442 21.4625 6.8843C18.4654 7.79109 17.0853 8.39417 14.4682 9.75522C12.4577 10.8008 11.544 11.412 9.79305 12.7218C8.52481 13.6705 7.31906 14.7094 6.8443 15.3472C6.36954 15.985 5.7378 16.625 5.2578 17.7248C4.36366 19.7736 4.51609 21.219 4.88475 22.1576C5.15237 22.839 5.47271 23.3922 5.99199 24.0471C6.70059 24.9407 7.28991 25.2411 8.12698 26.0157C8.88333 26.7156 10.1389 27.723 10.1389 27.723C10.1389 27.723 11.0513 28.4045 11.6198 28.9155C11.9307 29.1948 12.18 29.3982 12.4909 29.6776C12.8373 29.989 13.3669 30.4851 13.3669 30.4851C13.3669 30.4851 14.3693 29.8185 14.87 29.5422C15.3707 29.2659 15.8765 29.0292 16.5403 28.7374C17.0687 28.5052 17.3921 28.3823 17.9205 28.1501C18.8272 27.7515 19.0697 27.7821 20.2265 27.1494C20.5555 26.9694 20.6771 26.7992 20.8885 26.5782C21.0998 26.3573 21.2146 26.202 21.4668 26.1445C21.6912 26.0934 21.8084 26.1001 22.0791 26.204C22.2367 26.2645 22.3771 26.3254 22.4902 26.4507C22.676 26.6565 22.8077 27.0205 22.8077 27.0205C22.8077 27.0205 23.1287 26.4884 23.2726 26.2318C23.4319 25.9476 23.4559 25.7932 23.7286 25.5021C23.8753 25.3455 23.9832 25.2964 24.1751 25.3455C24.5773 25.4485 24.6907 25.7586 24.9177 26.1063C25.3645 26.7905 25.3382 27.3515 25.3004 28.1577L25.2981 28.2074C25.2675 28.8637 25.1576 29.226 24.9246 29.8478C24.5615 30.3614 24.3241 30.6646 24.1751 31.2503C24.0384 31.7879 24.0302 32.6632 24.0302 32.6632C23.7038 32.6632 23.1199 32.5976 22.5993 32.1151C21.9371 31.3645 21.7419 30.7401 21.603 30.1455C21.603 30.1455 21.1201 30.7385 20.8604 31.1523C20.3115 32.0271 20.1141 32.5946 19.828 33.5869C19.5858 34.4265 19.4809 34.8031 19.4295 35.7886C19.3721 36.8894 19.6874 37.3507 20.154 37.7529C20.7051 38.2279 20.9272 38.1227 21.603 37.5621C22.08 37.1664 22.7653 36.3798 23.4193 35.5771C24.1934 34.6271 24.621 34.0486 25.2981 33.0271C25.9752 32.0057 26.9101 30.4213 26.9101 30.4213C27.5462 29.1749 27.7119 28.8436 28.3633 27.501C28.9956 26.3589 29.4408 25.0048 29.554 24.4132C29.6325 24.0035 29.7119 23.5754 29.7649 23.0456C29.7971 22.7235 29.8835 22.2478 30.5916 22.7128C30.9512 22.949 31.4974 23.2371 31.9818 23.7004C32.4557 24.1538 32.8259 24.3701 32.9913 25.0048C33.0707 25.3097 33.0653 25.7621 32.9913 26.238C32.946 26.5287 32.8696 26.7294 32.806 26.9683L32.5877 27.9601C32.4809 29.0567 32.4803 28.5132 32.4901 29.6149C32.4984 30.5339 32.5508 32.1151 32.5508 32.1151C32.5508 32.1151 33.5978 31.8438 34.0383 31.5653C34.5647 31.3182 34.7851 31.1516 35.2327 30.7527C35.5603 30.4607 36.2469 29.7191 36.4071 29.5161C36.8598 28.9422 37.0135 28.5075 37.4248 27.6875C37.8185 26.9028 37.9939 26.4419 38.3425 25.6362C38.7135 24.7789 39.0953 23.7697 39.1962 23.3712C39.3373 22.8136 39.4248 22.1022 39.4248 21.7979C39.4248 21.4936 39.4987 21.0947 40.3377 21.5087C40.6496 21.6901 40.8813 21.7279 41.4095 22.2002C42.1158 22.8318 42.7197 23.4053 42.7197 23.7854C42.7646 24.2174 42.6555 24.7459 42.5984 25.1765C42.4635 26.1945 42.3412 26.7483 42.2699 27.7727C42.1888 28.9383 42.2755 30.8649 42.2755 30.8649C42.2755 30.8649 43.2786 30.5427 44.2269 29.8653C44.7295 29.5062 44.9913 29.2979 45.4419 28.8755C45.9714 28.3792 46.1855 28.0272 46.6171 27.3923C46.7773 27.1025 46.8451 26.9735 46.9574 26.7668C47.4637 25.8344 47.9093 26.4301 47.7219 27.1025C47.6647 27.3923 47.5403 27.6471 47.3579 27.9791C47.0675 28.5078 46.8465 28.7595 46.4778 29.237C46.0348 29.8108 45.8108 29.9686 45.3127 30.3484L45.2527 30.3942C44.698 30.8174 44.4839 30.9807 43.7552 31.3047C43.3134 31.5011 42.5259 31.7374 42.5259 31.7374C42.5259 31.7374 42.6748 32.9201 42.5259 33.6854C42.4044 34.3094 42.3959 34.6353 42.0766 35.1851L39.8785 34.0766C39.8785 34.0766 39.9864 33.8827 40.0222 33.7301C40.0907 33.5337 40.118 33.2587 40.118 33.2587L40.2109 32.8449L40.1484 32.6563C40.1484 32.6563 39.8254 32.6858 39.6123 32.768C39.4614 32.8345 39.3795 32.8666 39.2397 32.9473C39.0585 33.0449 38.7974 33.2645 38.7974 33.2645L38.2856 32.5166C38.7874 32.2327 39.3413 31.9846 39.9778 31.6436C39.9778 31.6436 39.9525 30.8679 39.9403 30.4213C39.914 29.4569 39.9135 28.9068 39.7277 27.9601C39.5821 27.2181 39.3255 25.851 39.3255 25.851C39.3255 25.851 38.6373 27.2343 38.2748 27.9601C37.8631 28.7846 37.7549 29.3225 37.2117 30.0669C36.5022 31.0393 35.9373 31.4904 34.9083 32.1151C34.1483 32.5765 32.8222 33.0271 32.8222 33.0271V34.8766C32.8037 35.2839 32.7233 35.5804 32.5795 36.0069L30.1869 35.2846L30.344 34.8766L30.488 34.2563L30.4537 33.8583L30.0764 33.9645C30.0764 33.9645 29.7565 34.0932 29.5649 34.2013C29.3283 34.3144 29.0059 34.5881 29.0059 34.5881L28.2119 34.0133C28.5713 33.7513 29.3807 33.3479 30.2634 32.9382C30.3112 32.3334 30.3043 31.7842 30.2634 31.1523L30.2614 31.122C30.2024 30.2107 30.1684 29.6849 29.995 28.7422C29.8763 28.0971 29.6873 27.033 29.6873 27.033C29.6873 27.033 29.3814 27.6486 29.25 27.9601C28.974 28.6145 28.7088 29.2074 28.3633 29.8478C27.9177 30.6736 27.8596 30.6966 27.4219 31.4389C26.8989 32.3257 26.5513 32.9368 25.9722 33.788C25.401 34.6275 25.0191 35.0217 24.415 35.9223C23.9451 36.623 23.555 37.1176 22.9623 37.7941C22.5629 38.25 22.2222 38.5512 21.5669 39.0018C20.9646 39.416 20.5873 39.5928 19.9148 39.6218C19.2452 39.6507 18.6934 39.339 18.2495 39.1114C17.8056 38.8837 17.1178 38.0762 16.9224 37.5621C16.5827 36.6687 16.4681 36.2144 16.4681 35.2524C16.4966 34.2665 16.6963 33.666 16.9847 32.7228C17.3463 31.5406 18.4277 29.8013 18.4277 29.8013C18.4277 29.8013 17.4331 30.1455 16.3078 30.7989C15.5793 31.222 14.4985 31.997 14.4985 31.997C14.4985 31.997 14.731 32.4908 14.8936 33.2891C14.8963 33.3021 14.899 33.3154 14.9016 33.3289C15.0374 34.0075 15.1638 34.943 15.1638 35.2524V35.2769L13.3518 34.279L12.8443 33.1063L12.7142 32.9859L12.2871 33.3201L10.7672 31.8446L11.205 31.5894L11.1788 31.5653C10.467 31.0628 9.28623 30.2914 8.57917 29.8179C6.60428 28.4955 5.67671 27.8848 4.73529 27.0548C3.49815 25.9641 2.40514 24.834 1.968 24.3104L1.96779 24.3102C1.3843 23.6113 0.747093 22.8481 0.433354 21.4872C0.0813194 19.9601 0.229036 19.0901 0.62139 17.8851C1.17858 16.083 2.53976 14.0266 3.49578 13.0773C5.89566 10.6941 7.3769 9.40745 11.4533 7.10986C13.6683 5.86141 17.0807 4.40411 18.4654 3.9722C19.682 3.59272 22.7991 2.75781 24.7186 2.75781C25.9182 2.76587 27.0738 2.71893 28.721 2.92149C30.4099 3.13256 31.4707 3.58465 32.2893 3.9722C33.5626 4.57502 34.215 5.07594 35.0062 6.09128C36.4086 7.8908 36.2369 10.3613 35.8747 11.4887C35.3876 13.0051 35.1877 13.581 34.6137 14.5777C33.9034 15.8109 32.4436 17.5652 31.4396 18.3339C30.3786 19.1462 29.1572 19.9216 28.2185 20.386C27.3283 20.864 26.6059 21.0777 25.3101 21.4612L25.198 21.4944C24.0849 21.7773 23.266 21.8628 21.3114 22.1452C19.9346 22.3441 18.6723 22.4246 17.1024 21.9305C15.886 21.5476 14.8386 20.8797 14.2379 20.3626C13.7457 19.9388 13.2534 19.3757 13.2534 18.8102Z" fill="#CF649B"/>
<path d="M10.523 31.99C10.8788 31.7798 11.4395 31.4531 11.4395 31.4531L12.7699 31.8989L13.2761 32.5412C13.2761 32.5412 12.575 33.1048 12.3355 33.2737C12.1285 33.4784 11.9647 33.5137 11.759 33.6638C11.4279 33.9053 11.2188 33.9785 10.8835 34.2142C10.6616 34.3703 10.4558 34.4461 10.242 34.613C9.94244 34.8468 9.76686 34.9153 9.46179 35.1418C9.10105 35.4097 8.94273 35.5091 8.59593 35.7692C8.26255 36.0192 8.12645 36.1276 7.81502 36.4044C7.53559 36.6528 7.44276 36.7849 7.18662 37.0572C6.98446 37.2722 6.90211 37.3819 6.73378 37.6242C6.57222 37.8568 6.46233 38.0306 6.33134 38.2817C6.1542 38.6213 6.07235 38.7138 5.9459 39.0753C5.85627 39.3315 5.80018 39.447 5.7623 39.7158C5.72565 39.9759 5.70783 40.0332 5.70783 40.26C5.70783 40.4867 5.70783 40.7191 5.7623 41.0429C5.86088 41.3426 5.89118 41.4745 6.16129 41.6487C6.40177 41.8037 6.55058 41.8187 6.83581 41.8414C7.21025 41.8712 7.50513 41.8435 7.96945 41.7394C8.31521 41.6618 8.45692 41.592 8.82135 41.4232C9.11933 41.2851 9.32649 41.2163 9.62884 41.0429C10.0054 40.8269 10.1976 40.6717 10.5327 40.3958L10.5445 40.3861C10.7953 40.1795 10.9409 40.0595 11.1644 39.8177C11.4382 39.5215 11.5706 39.3338 11.7853 38.9925C11.9604 38.7141 12.066 38.5239 12.2162 38.2314C12.3432 37.9842 12.3874 37.8674 12.4989 37.613C12.642 37.2863 12.714 37.0984 12.816 36.7567C12.9195 36.4098 12.9674 36.2108 13.0221 35.8529C13.0897 35.4113 13.0991 35.1579 13.0935 34.7112C13.087 34.201 13.0512 33.8786 12.9139 33.3872C12.8726 33.2393 12.8066 32.9474 12.8066 32.9474L13.0063 32.8957L13.7679 32.1701L14.7659 32.4413C14.7659 32.4413 15.0033 33.1175 15.0479 33.5694C15.0779 33.873 15.1851 34.0296 15.1851 34.3346V35.1098V36.2087C15.1851 36.751 15.1392 37.0746 15.0742 37.613C15.0158 38.0965 14.972 38.3855 14.8191 38.848C14.6714 39.2948 14.5669 39.5492 14.3755 39.9791C14.1614 40.4604 14.0248 40.6173 13.7475 41.0651C13.4041 41.6196 13.1249 41.8743 12.6627 42.3345C12.2038 42.7914 11.8912 43.0676 11.4234 43.4402C10.9557 43.8128 10.8956 43.7854 10.5751 43.9952C10.2066 44.2365 10.0016 44.3379 9.60663 44.5328C9.10496 44.7804 8.80347 44.893 8.25719 45.0137C7.64612 45.1486 7.26015 45.2093 6.63477 45.232C6.08391 45.252 5.7961 45.197 5.24807 45.1378C4.95502 45.1061 4.79795 45.0984 4.52075 44.9981C4.26658 44.9062 4.07365 44.8538 3.82032 44.7378C3.5931 44.6338 3.50124 44.5381 3.28007 44.3313C3.06685 44.0913 2.8969 43.8756 2.7824 43.6596C2.61082 43.336 2.53132 43.2792 2.39664 42.8806C2.27707 42.5267 2.16826 42.231 2.14245 41.8584C2.11942 41.526 2.10938 41.3199 2.10938 40.9741C2.1093 40.5717 2.15527 40.2702 2.1963 40.0276C2.25188 39.6988 2.31111 39.5673 2.4288 39.2283C2.55855 38.8547 2.64406 38.5919 2.84449 38.2509C3.06718 37.872 3.1755 37.681 3.47178 37.3166C3.75133 36.9728 3.95733 36.752 4.28632 36.4453C4.61657 36.1375 4.78335 35.9499 5.13734 35.6389C5.48767 35.331 5.68727 35.1066 6.0678 34.8241C6.53502 34.4773 6.80089 34.2691 7.29213 33.9456C7.76364 33.635 8.02256 33.4315 8.51181 33.1497C8.88007 32.9377 9.08258 32.8118 9.4546 32.6064C9.87845 32.3723 10.1062 32.2363 10.523 31.99Z" fill="#CF649B"/>
<path d="M32.8574 33.7488C32.8603 33.4608 32.8574 33.0112 32.8574 33.0112L31.9418 32.9587L30.4741 34.1261C30.4741 34.1261 30.4234 34.303 30.4056 34.3923C30.3798 34.5218 30.3755 34.5858 30.3555 34.7187C30.3323 34.8738 30.2974 34.9782 30.2425 35.1286C30.1838 35.2898 30.1528 35.3471 30.0646 35.4918C29.9671 35.6517 29.8921 35.8021 29.8194 35.9173C29.7466 36.0325 29.578 36.2285 29.5491 36.2674C29.5153 36.3129 29.4009 36.4642 29.3009 36.5852C29.1868 36.7232 29.0872 36.778 28.9935 36.844C28.8969 36.9121 28.8448 36.929 28.7332 36.9679C28.6576 36.9944 28.5795 37.0026 28.5008 37.0175C28.3984 37.0369 28.2902 37.0289 28.1867 37.0175C28.0731 37.005 28.0004 36.9782 27.9017 36.9204C27.8479 36.8889 27.8197 36.8656 27.7787 36.8186C27.714 36.7445 27.684 36.6673 27.6667 36.593C27.6429 36.4905 27.6228 36.4284 27.6228 36.3271C27.6228 36.2079 27.6297 36.1438 27.6667 36.054C27.7468 35.8596 27.8156 35.7417 27.9442 35.5927C28.0373 35.4848 28.0889 35.4236 28.1867 35.3199C28.3446 35.1524 28.4386 35.0632 28.611 34.9106C28.7698 34.7701 28.8394 34.6988 29.0313 34.5673C29.203 34.4496 29.3155 34.3356 29.4981 34.2358C29.6944 34.1285 29.8262 34.0634 30.0416 34.0032C30.2054 33.9575 30.4741 33.9523 30.4741 33.9523L31.3473 32.9246L30.3471 32.8672L30.0909 33.0112C30.0909 33.0112 29.8157 33.1428 29.6402 33.2288C29.417 33.3382 29.2912 33.3985 29.0709 33.5135C28.757 33.6772 28.6772 33.7199 28.3776 33.9084C28.0987 34.084 27.9232 34.2477 27.6667 34.4546C27.4159 34.6569 27.2592 34.7803 27.0339 35.0834C26.9193 35.2682 26.8151 35.4432 26.7598 35.6603C26.7286 35.8797 26.7296 35.9807 26.7269 36.1754C26.7229 36.4641 26.7561 36.6232 26.8426 36.8602C26.929 37.0972 26.9864 37.2236 27.133 37.3847C27.2741 37.5398 27.3929 37.6592 27.5882 37.7995C27.8544 37.9907 28.0273 38.0725 28.3384 38.1754C28.539 38.2418 28.6568 38.2655 28.8658 38.2966C29.2616 38.3556 29.4965 38.3667 29.8904 38.2966C30.2002 38.2416 30.3756 38.189 30.6567 38.0478C30.8879 37.9317 31.0077 37.8491 31.2146 37.6937C31.4307 37.5314 31.5411 37.4201 31.736 37.233C31.9062 37.0695 32.0056 36.9792 32.1478 36.7908C32.2851 36.609 32.3497 36.4964 32.4512 36.2924C32.5705 36.0526 32.6215 35.9088 32.6939 35.6509C32.7733 35.3683 32.7928 35.1995 32.8258 34.9138L32.8283 34.8924C32.8796 34.4486 32.8529 34.1955 32.8574 33.7488Z" fill="#CF649B"/>
<path d="M42.5918 32.4598C42.5947 32.1717 42.5932 31.71 42.5932 31.71L41.6761 31.6696L40.2085 32.837C40.2085 32.837 40.1577 33.0139 40.14 33.1032C40.1142 33.2328 40.1098 33.2968 40.0899 33.4297C40.0666 33.5847 40.0318 33.6891 39.9769 33.8396C39.9181 34.0007 39.8872 34.058 39.7989 34.2028C39.7015 34.3626 39.6265 34.5131 39.5538 34.6283C39.481 34.7435 39.3123 34.9395 39.2835 34.9783C39.2496 35.0238 39.1353 35.1752 39.0353 35.2962C38.9212 35.4342 38.8216 35.4889 38.7279 35.5549C38.6313 35.623 38.5791 35.6399 38.4676 35.6789C38.3919 35.7053 38.3139 35.7135 38.2352 35.7285C38.1328 35.7479 38.0246 35.7399 37.921 35.7285C37.8074 35.716 37.7347 35.6891 37.6361 35.6314C37.5823 35.5998 37.5541 35.5765 37.513 35.5295C37.4484 35.4554 37.4184 35.3783 37.4011 35.304C37.3773 35.2014 37.3572 35.1393 37.3572 35.038C37.3572 34.9189 37.3641 34.8547 37.4011 34.7649C37.4811 34.5705 37.55 34.4526 37.6785 34.3036C37.7717 34.1957 37.8232 34.1345 37.921 34.0308C38.079 33.8633 38.173 33.7741 38.3454 33.6215C38.5041 33.4811 38.5738 33.4097 38.7657 33.2782C38.9374 33.1606 39.0499 33.0465 39.2325 32.9467C39.4288 32.8395 39.5606 32.7743 39.776 32.7142C39.9398 32.6684 40.3144 32.6368 40.3144 32.6368L41.0816 31.6355L40.0815 31.5781L39.8253 31.7221C39.8253 31.7221 39.5501 31.8537 39.3746 31.9397C39.1514 32.0492 39.0256 32.1094 38.8052 32.2244C38.4914 32.3882 38.4115 32.4308 38.1119 32.6194C37.8331 32.7949 37.6575 32.9587 37.4011 33.1655C37.1503 33.3678 36.9936 33.4912 36.7683 33.7944C36.6536 33.9791 36.5495 34.1542 36.4941 34.3713C36.4629 34.5906 36.464 34.6916 36.4613 34.8863C36.4573 35.1751 36.4905 35.3342 36.5769 35.5711C36.6634 35.8081 36.7208 35.9345 36.8673 36.0956C37.0085 36.2508 37.1272 36.3701 37.3226 36.5104C37.5887 36.7016 37.7616 36.7834 38.0727 36.8863C38.2734 36.9527 38.3911 36.9764 38.6002 37.0076C38.9959 37.0666 39.2308 37.0776 39.6248 37.0076C39.9346 36.9525 40.1099 36.9 40.3911 36.7588C40.6223 36.6427 40.7421 36.56 40.9489 36.4047C41.165 36.2424 41.2754 36.1311 41.4704 35.9439C41.6406 35.7805 41.74 35.6901 41.8822 35.5018C42.0194 35.3199 42.084 35.2073 42.1856 35.0033C42.3049 34.7635 42.3558 34.6197 42.4283 34.3618C42.5077 34.0792 42.5272 33.9104 42.5602 33.6247L42.5627 33.6033C42.6139 33.1595 42.5873 32.9065 42.5918 32.4598Z" fill="#CF649B"/>
</svg>
