<svg width="48" height="48" viewBox="0 0 48 48" fill="none" xmlns="http://www.w3.org/2000/svg">
<path d="M24 9.60156C17.6 9.60156 13.6 12.8006 12 19.1986C14.4 15.9996 17.2 14.8006 20.4 15.5996C22.226 16.0556 23.531 17.3806 24.976 18.8466C27.328 21.2336 30.051 23.9976 36 23.9976C42.4 23.9976 46.4 20.7986 48 14.3996C45.6 17.5986 42.8 18.7986 39.6 17.9996C37.775 17.5436 36.47 16.2186 35.025 14.7526C32.672 12.3646 29.948 9.60156 24 9.60156ZM12 23.9976C5.6 23.9976 1.6 27.1966 0 33.5956C2.4 30.3966 5.2 29.1966 8.4 29.9966C10.225 30.4536 11.53 31.7776 12.975 33.2426C15.328 35.6306 18.052 38.3946 24 38.3946C30.4 38.3946 34.4 35.1956 36 28.7966C33.6 31.9956 30.8 33.1956 27.6 32.3956C25.774 31.9396 24.469 30.6146 23.024 29.1496C20.672 26.7616 17.949 23.9976 12 23.9976Z" fill="#00ACC1"/>
</svg>
