<svg width="100" height="100" viewBox="0 0 100 100" fill="none" xmlns="http://www.w3.org/2000/svg">
<path d="M13.5625 10.1885V89.8919C13.5625 101.222 35.1413 101.661 35.1413 89.8919V48.0341L63.476 89.8919C67.1611 95.0922 71.7661 97.9888 75.9041 97.9888C80.4129 97.9888 86.4323 94.9871 86.4323 89.8919V10.6325C86.4323 -1.47938 64.9109 -1.77473 64.9109 10.6325V51.1743L36.5545 10.6325C32.9712 5.26083 30.3299 1.99223 24.7832 1.99223C19.2365 1.99223 13.5625 5.52768 13.5625 10.1885Z" fill="#37D0EE"/>
<path d="M25.763 13.6213V48.751C25.763 52.0081 22.9449 54.3859 20.4225 55.5105C17.5146 56.8069 13.6016 56.8586 13.6016 56.8586V10.3165C13.6016 4.67729 20.5879 2.01646 24.731 2.01646C31.548 1.9372 33.955 7.32242 33.955 8.20886C33.955 12.3131 31.2589 13.6213 29.8901 13.6213H25.763Z" fill="#73DEF3" fill-opacity="0.6"/>
<path d="M23.7662 13.5385C23.7662 8.21512 15.6797 8.09292 15.6797 13.5385V23.0091C15.6797 28.7706 23.7662 28.5543 23.7662 23.0091V13.5385Z" fill="white"/>
<path d="M75.5883 87.1618L58.9722 62.7724C58.5172 62.0994 57.5119 60.0694 51.5432 60.0694C49.1436 60.0694 43.2891 60.0728 43.2891 60.0728L63.4146 89.8308C63.4146 89.8308 69.0583 98.0235 75.5883 98.0235C81.9175 98.0235 86.4331 94.0884 86.4331 89.8188V47.9272C86.4331 47.9272 82.2038 47.7743 80.0862 49.1007C77.9687 50.427 75.5883 52.4298 75.5883 54.72V87.1618Z" fill="#2FB1CB"/>
</svg>
