<svg width="192" height="193" viewBox="0 0 192 193" fill="none" xmlns="http://www.w3.org/2000/svg">
<path d="M26.3359 20.8402V173.224C26.3359 194.885 67.5922 195.725 67.5922 173.224V93.1968L121.765 173.224C128.81 183.166 137.615 188.704 145.526 188.704C154.146 188.704 165.655 182.966 165.655 173.224V21.6892C165.655 -1.46737 124.508 -2.03204 124.508 21.6892V99.2004L70.294 21.6892C63.4431 11.4191 58.3933 5.16996 47.7886 5.16996C37.1839 5.16996 26.3359 11.9293 26.3359 20.8402Z" fill="#37D0EE"/>
<path d="M49.6576 27.4076V94.5714C49.6576 100.799 44.2697 105.345 39.4471 107.495C33.8876 109.973 26.4062 110.072 26.4062 110.072V21.0891C26.4062 10.3076 39.7633 5.22035 47.6844 5.22035C60.7178 5.0688 65.3197 15.3647 65.3197 17.0595C65.3197 24.9064 60.165 27.4076 57.548 27.4076H49.6576Z" fill="#73DEF3" fill-opacity="0.6"/>
<path d="M45.8433 27.2445C45.8433 17.0669 30.3828 16.8333 30.3828 27.2445V45.3512C30.3828 56.3665 45.8433 55.953 45.8433 45.3512V27.2445Z" fill="white"/>
<path d="M144.924 167.999L113.156 121.369C112.286 120.082 110.364 116.201 98.9528 116.201C94.365 116.201 83.1719 116.208 83.1719 116.208L121.65 173.102C121.65 173.102 132.44 188.765 144.924 188.765C157.025 188.765 165.658 181.242 165.658 173.079V92.9868C165.658 92.9868 157.572 92.6944 153.524 95.2302C149.475 97.7661 144.924 101.595 144.924 105.974V167.999Z" fill="#2FB1CB"/>
</svg>
