<svg width="196" height="196" viewBox="0 0 196 196" fill="none" xmlns="http://www.w3.org/2000/svg">
<path d="M26.3359 20.3752V177.134C26.3359 199.417 68.7767 200.281 68.7767 177.134V94.8092L124.505 177.134C131.752 187.362 140.809 193.059 148.948 193.059C157.816 193.059 169.655 187.155 169.655 177.134V21.2486C169.655 -2.57279 127.327 -3.15367 127.327 21.2486V100.985L71.556 21.2486C64.5085 10.6837 59.3136 4.25509 48.4045 4.25509C37.4954 4.25509 26.3359 11.2085 26.3359 20.3752Z" fill="#37D0EE"/>
<path d="M50.3251 27.1305V96.2227C50.3251 102.629 44.7826 107.305 39.8215 109.517C34.1024 112.067 26.4062 112.169 26.4062 112.169V20.6307C26.4062 9.53959 40.1468 4.30633 48.2953 4.30633C61.7029 4.15043 66.4369 14.742 66.4369 16.4854C66.4369 24.5576 61.1343 27.1305 58.4421 27.1305H50.3251Z" fill="#73DEF3" fill-opacity="0.6"/>
<path d="M46.4122 26.9584C46.4122 16.4886 30.5078 16.2482 30.5078 26.9584V45.5849C30.5078 56.9165 46.4122 56.4911 46.4122 45.5849V26.9584Z" fill="white"/>
<path d="M148.322 171.762L115.642 123.794C114.747 122.47 112.77 118.477 101.031 118.477C96.3114 118.477 84.7969 118.484 84.7969 118.484L124.379 177.012C124.379 177.012 135.479 193.125 148.322 193.125C160.77 193.125 169.652 185.385 169.652 176.988V94.5965C169.652 94.5965 161.334 94.2957 157.169 96.9043C153.004 99.513 148.322 103.452 148.322 107.956V171.762Z" fill="#2FB1CB"/>
</svg>
