<svg width="512" height="512" viewBox="0 0 512 512" fill="none" xmlns="http://www.w3.org/2000/svg">
<path d="M69.1406 51.8545V460.601C69.1406 518.704 179.804 520.956 179.804 460.601V245.94L325.114 460.601C344.013 487.269 367.628 502.124 388.85 502.124C411.972 502.124 442.842 486.731 442.842 460.601V54.1316C442.842 -7.9822 332.473 -9.49683 332.473 54.1316V262.044L187.051 54.1316C168.675 26.5839 155.129 9.82141 126.684 9.82141C98.2387 9.82141 69.1406 27.9524 69.1406 51.8545Z" fill="#37D0EE"/>
<path d="M131.704 69.4712V249.628C131.704 266.331 117.252 278.526 104.316 284.293C89.4035 290.941 69.3359 291.207 69.3359 291.207V52.5228C69.3359 23.6031 105.164 9.95741 126.411 9.95741C161.371 9.55091 173.715 37.1682 173.715 41.7141C173.715 62.7623 159.889 69.4712 152.869 69.4712H131.704Z" fill="#73DEF3" fill-opacity="0.6"/>
<path d="M121.463 69.0309C121.463 41.731 79.9922 41.1043 79.9922 69.0309V117.599C79.9922 147.146 121.463 146.037 121.463 117.599V69.0309Z" fill="white"/>
<path d="M387.235 446.579L302.022 321.502C299.689 318.051 294.533 307.64 263.924 307.64C251.618 307.64 221.594 307.658 221.594 307.658L324.805 460.267C324.805 460.267 353.747 502.282 387.235 502.282C419.693 502.282 442.851 482.101 442.851 460.205V245.371C442.851 245.371 421.162 244.587 410.302 251.389C399.442 258.191 387.235 268.462 387.235 280.207V446.579Z" fill="#2FB1CB"/>
</svg>
