<svg width="140" height="206" viewBox="0 0 140 206" fill="none" xmlns="http://www.w3.org/2000/svg">
<g id="go-down-arrow">
<g id="arrow-1">
<rect id="Rectangle-2" x="0.407227" y="12.7369" width="17.8572" height="98.2143" rx="8.92862" transform="rotate(-45 0.407227 12.7369)" fill="#D9D9D9"/>
<rect id="Rectangle-1" x="127.201" y="0.109909" width="17.8572" height="98.2143" rx="8.92862" transform="rotate(45 127.201 0.109909)" fill="#D9D9D9"/>
</g>
<g id="arrow-2">
<rect id="Rectangle-2_2" x="0.407227" y="53.7744" width="17.8572" height="98.2143" rx="8.92862" transform="rotate(-45 0.407227 53.7744)" fill="#D9D9D9"/>
<rect id="Rectangle-1_2" x="127.201" y="41.1474" width="17.8572" height="98.2143" rx="8.92862" transform="rotate(45 127.201 41.1474)" fill="#D9D9D9"/>
</g>
<g id="arrow-3">
<rect id="Rectangle-2_3" x="0.407227" y="94.8118" width="17.8572" height="98.2143" rx="8.92862" transform="rotate(-45 0.407227 94.8118)" fill="#D9D9D9"/>
<rect id="Rectangle-1_3" x="127.201" y="82.1849" width="17.8572" height="98.2143" rx="8.92862" transform="rotate(45 127.201 82.1849)" fill="#D9D9D9"/>
</g>
<g id="arrow-4">
<rect id="Rectangle-2_4" x="0.407227" y="135.849" width="17.8572" height="98.2143" rx="8.92862" transform="rotate(-45 0.407227 135.849)" fill="#D9D9D9"/>
<rect id="Rectangle-1_4" x="127.201" y="123.222" width="17.8572" height="98.2143" rx="8.92862" transform="rotate(45 127.201 123.222)" fill="#D9D9D9"/>
</g>
</g>
</svg>
