<svg width="880" height="484" viewBox="0 0 880 484" fill="none" xmlns="http://www.w3.org/2000/svg">
<path d="M134.982 413.546C115.471 428.09 109.941 453.68 109.941 453.68C109.941 453.68 136.045 455.69 155.556 441.145C175.067 426.601 180.596 401.011 180.596 401.011C180.596 401.011 154.493 399.001 134.982 413.546Z" fill="url(#paint0_linear_1_2)"/>
<path d="M143.109 420.374C133.732 442.831 110.247 454.403 110.247 454.403C110.247 454.403 101.966 429.566 111.343 407.11C120.72 384.654 144.205 373.081 144.205 373.081C144.205 373.081 152.486 397.918 143.109 420.374Z" fill="url(#paint1_linear_1_2)"/>
<path d="M93.2166 414.914C112.651 426.08 122.1 450.348 122.1 450.348C122.1 450.348 100.04 456.512 80.6057 445.346C61.1716 434.179 51.7227 409.911 51.7227 409.911C51.7227 409.911 73.7826 403.747 93.2166 414.914Z" fill="url(#paint2_linear_1_2)"/>
<path d="M87.487 422.931C99.6664 443.501 121.969 451.108 121.969 451.108C121.969 451.108 124.525 425.364 112.346 404.794C100.166 384.224 77.8638 376.617 77.8638 376.617C77.8638 376.617 75.3077 402.361 87.487 422.931Z" fill="url(#paint3_linear_1_2)"/>
<path d="M704.453 355.456C702.38 341.492 701.832 327.343 702.82 313.261L704.453 289.954C695.453 307.862 697.487 331.432 704.453 355.456V355.456Z" fill="#807E7E"/>
<path d="M711.47 359.355C710.472 351.022 710.21 342.618 710.685 334.239L711.47 320.366C707.14 331.025 708.119 345.055 711.47 359.355Z" fill="#807E7E"/>
<path d="M742.664 376.513V384.311C742.66 384.93 742.413 385.523 741.975 385.961C741.537 386.399 740.944 386.647 740.324 386.65H736.425C736.323 386.65 736.221 386.669 736.126 386.709C736.032 386.748 735.945 386.805 735.873 386.878C735.801 386.95 735.743 387.036 735.704 387.131C735.665 387.226 735.645 387.327 735.645 387.43V451.373C735.642 451.992 735.395 452.585 734.957 453.023C734.519 453.461 733.925 453.709 733.306 453.712H685.739C685.119 453.712 684.524 453.465 684.085 453.026C683.647 452.588 683.4 451.993 683.399 451.373V387.43C683.399 387.223 683.316 387.025 683.17 386.879C683.024 386.733 682.826 386.651 682.62 386.65H677.941C677.321 386.649 676.726 386.403 676.287 385.964C675.849 385.526 675.602 384.931 675.602 384.311V376.513C675.601 376.205 675.661 375.901 675.779 375.617C675.896 375.333 676.069 375.075 676.286 374.858C676.503 374.64 676.761 374.468 677.045 374.35C677.329 374.233 677.634 374.173 677.941 374.173H740.324C740.944 374.175 741.538 374.422 741.976 374.861C742.415 375.299 742.662 375.893 742.664 376.513V376.513Z" fill="#24601A"/>
<path d="M735.719 388.288H683.473V390.627H735.719V388.288Z" fill="#E0BC00"/>
<path d="M735.647 422.711C718.445 429.946 701.055 430.026 683.473 422.711V406.23C700.399 400.452 718.72 400.452 735.647 406.23V422.711Z" fill="#E0BC00"/>
<path d="M442.803 170.719C481.83 170.719 513.469 139.081 513.469 100.053C513.469 61.0253 481.83 29.3871 442.803 29.3871C403.775 29.3871 372.137 61.0253 372.137 100.053C372.137 139.081 403.775 170.719 442.803 170.719Z" fill="#FEB8B8"/>
<circle cx="417.153" cy="102.195" r="7.40143" fill="#1D1B1B"/>
<circle cx="419.236" cy="102.195" r="2.08288" fill="#FBDADA"/>
<path d="M482.295 102.195C482.295 106.283 478.981 109.596 474.894 109.596C470.806 109.596 467.492 106.283 467.492 102.195C467.492 98.1073 470.806 94.7935 474.894 94.7935C478.981 94.7935 482.295 98.1073 482.295 102.195Z" fill="#1D1B1B"/>
<path d="M479.059 102.136C479.059 103.286 478.127 104.219 476.976 104.219C475.826 104.219 474.894 103.286 474.894 102.136C474.894 100.986 475.826 100.053 476.976 100.053C478.127 100.053 479.059 100.986 479.059 102.136Z" fill="#FBDADA"/>
<path d="M467.211 130.113C467.211 139.71 451.97 147.489 442.374 147.489C432.777 147.489 415.85 139.71 415.85 130.113C415.85 120.517 432.777 132.509 442.374 132.509C451.97 132.509 467.211 120.517 467.211 130.113Z" fill="#D9D9D9"/>
<path d="M467.492 148.819H424.555V200.626H467.492V148.819Z" fill="#FEB8B8"/>
<path d="M508.804 39.0882C498.239 21.932 481.701 9.29029 462.374 3.5965L453.698 9.9273V1.70694C449.057 0.996533 444.359 0.722862 439.666 0.889531L432.181 7.66173V1.45217C421.1 2.82926 410.423 6.48752 400.826 12.1963C391.228 17.905 382.918 25.5404 376.418 34.6211C360.164 58.0533 357.42 90.6527 373.407 114.273C377.796 100.786 383.122 88.131 387.512 74.6452C390.961 75.1154 394.457 75.1323 397.91 74.6956L403.249 62.237L404.741 74.1684C421.291 72.727 445.838 69.561 461.526 66.6606L460 57.507L469.128 65.113C473.934 64.0068 476.789 63.0027 476.553 62.2358C488.221 81.0469 502.501 93.0614 514.168 111.873C518.6 85.3478 523.701 63.2928 508.804 39.0882Z" fill="#2F2E41"/>
<path d="M594.786 281.772C592.356 267.153 589.85 252.253 583.055 239.083C578.59 230.457 571.501 222.237 561.945 220.531C560.063 220.363 558.213 219.935 556.449 219.259C553.649 217.91 516.024 196.431 510.044 192.69C504.909 189.479 496.803 183.532 492.716 183.532C488.605 183.442 472.839 187.111 411.303 182.301C411.303 182.301 394.398 188.964 381.317 197.044C381.119 196.913 317.448 231.104 315.056 231.014C310.526 230.824 306.315 233.724 303.718 237.377C301.122 241.029 299.904 245.551 298.629 249.922C312.536 280.892 325.26 311.902 339.168 342.872C339.819 344.038 340.165 345.351 340.174 346.686C339.894 348.073 339.302 349.377 338.443 350.501C331.623 361.457 331.84 375.237 332.585 388.114C333.331 400.991 334.253 414.592 328.498 426.134C326.933 429.303 324.897 432.203 323.408 435.372C319.922 442.549 318.662 465.503 320.698 473.214L575.819 480.522C570.334 465.444 594.786 281.772 594.786 281.772Z" fill="#776DFF"/>
<path d="M276.573 344.245C276.064 347.927 276.012 351.659 276.42 355.354L280.077 407.866C280.42 412.816 280.758 417.753 281.222 422.69C282.1 432.271 283.41 441.776 285.037 451.268C285.074 452.615 285.644 453.893 286.622 454.821C287.6 455.749 288.906 456.251 290.253 456.217C306.349 459.623 322.98 459.487 339.407 458.559C364.474 457.16 428.604 454.513 432.522 449.423C436.441 444.333 434.157 436.101 429.048 431.985C423.94 427.869 339.31 417.836 339.31 417.836C340.137 411.283 342.631 405.111 344.998 398.89C349.248 387.855 353.218 376.457 353.294 364.636C353.371 352.815 348.917 340.387 339.234 333.615C331.268 328.055 321.012 327.024 311.306 327.253C304.243 327.456 292.041 325.763 285.59 328.525C280.485 330.773 277.526 339.247 276.573 344.245Z" fill="#FBBEBE"/>
<path d="M297.891 250.866C296.651 252.163 295.69 253.701 295.067 255.383C284.781 278.563 278.706 303.389 277.126 328.699C277.154 329.933 276.869 331.154 276.299 332.249C275.737 332.977 275.111 333.654 274.429 334.272C273.834 334.977 273.384 335.792 273.104 336.671C272.824 337.55 272.721 338.476 272.799 339.395C272.877 340.314 273.135 341.209 273.559 342.028C273.982 342.848 274.563 343.575 275.269 344.17C275.384 344.268 275.503 344.361 275.625 344.451C277.724 340.501 282.75 339.209 287.217 338.866C308.606 337.174 329.498 347.124 350.951 346.374C349.438 341.144 347.261 336.118 346.026 330.825C340.567 307.324 354.183 281.736 345.836 259.099C344.168 254.57 341.382 250.116 336.993 248.131C335.175 247.398 333.273 246.895 331.331 246.633C325.91 245.653 315.119 241.467 309.878 243.146C307.943 243.77 307.181 245.589 305.577 246.689C303.141 248.244 299.91 248.817 297.891 250.866Z" fill="#776DFF"/>
<path d="M594.936 328.525C588.485 325.763 576.283 327.456 569.22 327.253C559.513 327.024 549.258 328.055 541.292 333.615C531.609 340.387 527.155 352.815 527.231 364.636C527.308 376.457 531.278 387.855 535.528 398.89C537.894 405.111 540.389 411.283 541.216 417.836C541.216 417.836 456.586 427.869 451.477 431.985C446.368 436.101 444.085 444.333 448.003 449.423C451.921 454.513 574.176 459.623 590.272 456.217C591.62 456.251 592.926 455.749 593.904 454.821C594.882 453.893 595.452 452.615 595.489 451.268C597.115 441.776 598.426 432.271 599.303 422.69C599.768 417.753 600.106 412.816 600.449 407.866L604.105 355.354C604.513 351.659 604.462 347.927 603.953 344.245C602.999 339.247 600.04 330.773 594.936 328.525Z" fill="#FBBEBE"/>
<path d="M574.952 246.689C573.349 245.589 572.586 243.77 570.651 243.146C565.41 241.467 554.619 245.653 549.199 246.633C547.256 246.895 545.354 247.398 543.537 248.131C539.147 250.116 536.361 254.57 534.694 259.099C526.347 281.736 539.962 307.324 534.503 330.825C533.269 336.118 531.092 341.144 529.578 346.374C551.031 347.124 571.924 337.174 593.312 338.866C597.78 339.209 602.805 340.501 604.905 344.451C605.026 344.361 605.145 344.268 605.261 344.17C605.966 343.575 606.547 342.848 606.971 342.028C607.394 341.209 607.653 340.314 607.731 339.395C607.809 338.476 607.705 337.55 607.425 336.671C607.146 335.792 606.695 334.977 606.101 334.272C605.419 333.654 604.793 332.977 604.23 332.249C603.66 331.154 603.376 329.933 603.403 328.699C601.823 303.389 595.748 278.563 585.463 255.383C584.839 253.701 583.878 252.163 582.638 250.866C580.619 248.817 577.388 248.244 574.952 246.689Z" fill="#776DFF"/>
<path d="M464.104 458.725C474.638 458.725 483.177 450.186 483.177 439.652C483.177 429.119 474.638 420.579 464.104 420.579C453.57 420.579 445.031 429.119 445.031 439.652C445.031 450.186 453.57 458.725 464.104 458.725Z" fill="#FBBEBE"/>
<path d="M421.874 458.725C432.407 458.725 440.946 450.186 440.946 439.652C440.946 429.119 432.407 420.579 421.874 420.579C411.34 420.579 402.801 429.119 402.801 439.652C402.801 450.186 411.34 458.725 421.874 458.725Z" fill="#FBBEBE"/>
<path d="M573.818 459.125H311.787C308.728 459.121 305.795 457.905 303.632 455.741C301.469 453.578 300.252 450.645 300.248 447.586V288.619C300.252 285.56 301.469 282.627 303.632 280.464C305.795 278.301 308.728 277.084 311.787 277.081H573.818C576.877 277.084 579.81 278.301 581.973 280.464C584.137 282.627 585.354 285.56 585.357 288.619V447.586C585.354 450.645 584.137 453.578 581.973 455.741C579.81 457.905 576.877 459.121 573.818 459.125Z" fill="#3F3D56"/>
<path d="M447.443 365.206L440.391 366.19L440.389 371.534H447.443V365.206Z" fill="#D9D9D9"/>
<path d="M454.896 364.015L447.844 365.185L447.842 371.534H454.896V364.015Z" fill="#D9D9D9"/>
<path d="M447.441 371.948H440.389V377.292L447.441 378.276V371.948Z" fill="#D9D9D9"/>
<path d="M454.894 371.948H447.842V378.328L454.894 379.503V371.948Z" fill="#D9D9D9"/>
<path d="M879.579 450.566H0.949219V477.566H52.9192V483.842H827.629V477.566H879.579V450.566Z" fill="#ADBAE7"/>
<path d="M377.821 126.391C366.467 126.391 357.262 116.439 357.262 104.162V93.0472C357.262 80.7702 366.466 70.8178 377.821 70.8178V126.391H377.821Z" fill="#776DFF"/>
<path d="M509.043 70.8178C520.398 70.8178 529.602 80.7702 529.602 93.0472V104.162C529.602 116.439 520.398 126.391 509.043 126.391V70.8178Z" fill="#776DFF"/>
<path d="M519.818 94.7935H516.556C516.556 50.0635 482.9 13.6729 441.53 13.6729C400.161 13.6729 366.504 50.0636 366.504 94.7935H363.242C363.242 48.1186 398.362 10.1459 441.53 10.1459C484.699 10.1459 519.818 48.1187 519.818 94.7935Z" fill="#776DFF"/>
<defs>
<linearGradient id="paint0_linear_1_2" x1="146.529" y1="365.751" x2="145.119" y2="453.772" gradientUnits="userSpaceOnUse">
<stop stop-color="#61FF00"/>
<stop offset="1" stop-color="#056608"/>
</linearGradient>
<linearGradient id="paint1_linear_1_2" x1="127.952" y1="318.979" x2="122.17" y2="454.186" gradientUnits="userSpaceOnUse">
<stop stop-color="#61FF00"/>
<stop offset="1" stop-color="#056608"/>
</linearGradient>
<linearGradient id="paint2_linear_1_2" x1="74.5213" y1="369.784" x2="92.264" y2="456.007" gradientUnits="userSpaceOnUse">
<stop stop-color="#61FF00"/>
<stop offset="1" stop-color="#056608"/>
</linearGradient>
<linearGradient id="paint3_linear_1_2" x1="81.8965" y1="320.827" x2="113.202" y2="452.447" gradientUnits="userSpaceOnUse">
<stop stop-color="#61FF00"/>
<stop offset="1" stop-color="#056608"/>
</linearGradient>
</defs>
</svg>
