<svg viewBox="0 0 946 781" fill="none">
<g id="logo">
<path id="N" d="M0 359.921H65.1801V110.588L295.817 346.178C312.5 366 318 365.509 336.931 364.829C353.777 362.473 361 344.883 361 336.044L361.963 0.698417H296.783L295.817 253.905L254.704 212.187L156.432 112.552L97.2687 51.691L52.144 6.53622C45 1.60858 41.5 0.64643 33.0914 0.64643C23.8659 0.25385 13.5097 4.72045 10 7.50171C3.5 11.9216 0.501385 21.7514 0 26.1687V359.921Z"/>
<path id="dot-1-i" d="M496 0.62207H431V58.5712H496V0.62207Z"/>
<path id="i-1" d="M496 92.9519H431V359.616H496V92.9519Z"/>
<path id="r" d="M636.717 119.869L634.354 365.06H567.804V121.878C567.804 48.485 618.408 0.622192 700.104 0.622192H945.804V67.8793H825.17H700.104C665.901 67.8793 636.717 88.3926 636.717 119.869Z"/>
<g id="K">
<path id="Vector" d="M632.529 417.696H567.529V778.696H632.529V778.196V417.696Z"/>
<path id="Vector_2" d="M659.529 630.696V565.696H705.529L852.529 417.696H945.529L760.029 598.196L945.529 778.696H944.529H852.529L705.529 630.696H659.529Z"/>
</g>
<path id="dot -2-i" d="M433.662 721.129L498.662 721.071L498.714 780.071L433.714 780.129L433.662 721.129Z"/>
<path id="i-2" d="M433.922 695.749L498.922 695.691L498.682 423.191L433.683 423.249L433.922 695.749Z"/>
<path id="v" d="M73.5841 425.217H0.711159V741.681C-4.22178 761.436 17.7152 775.039 29.2998 779.371C54.8614 783.01 99.3699 772.656 118.429 767.024C173.364 742.981 191.863 730.634 236.707 685.147C276.507 640.958 292.764 605.435 310.702 572.727C341.532 503.196 338.169 506.445 365.076 425.217H287.719C258.009 510.994 271.843 488.078 239.51 548.683C213.164 598.07 185.696 629.262 173.364 640.958C173.364 640.958 140.291 681.897 87.5982 690.995L73.5841 691.645V425.217Z"/>
</g>
</svg>
