<svg width="1107" height="883" viewBox="0 0 1107 883" fill="none" xmlns="http://www.w3.org/2000/svg">
<g clip-path="url(#clip0_243_200)">
<rect width="36.2995" height="47.4296" transform="matrix(0.930772 -0.365601 0.365249 0.93091 816.094 90.4688)" fill="#FFB6B6"/>
<path d="M932.945 845.439C937.304 845.71 939.711 840.291 936.412 837.134L936.084 835.829C936.127 835.725 936.17 835.621 936.213 835.517C938.813 829.31 945.973 826.372 952.188 828.943C971.84 837.072 951.092 855.753 952.652 868.394C953.198 872.757 970.279 872.997 969.313 877.279C978.396 857.409 983.172 835.714 983.164 813.898C983.162 808.416 982.86 802.935 982.245 797.468C981.739 792.995 981.043 788.551 980.142 784.147C975.269 760.342 964.727 737.67 949.526 718.736C942.22 714.743 946.676 708.497 942.994 701.013C941.671 698.313 929.874 698.253 929.383 695.294C929.911 695.363 937.536 687.439 935.017 683.521C933.36 680.943 933.876 677.66 936.005 675.457C936.214 675.241 936.411 675.013 936.591 674.767C942.881 666.229 951.551 667.717 956.08 679.315C965.75 684.194 965.847 692.29 959.917 700.08C956.145 705.035 955.628 711.739 952.319 717.044C952.66 717.48 953.014 717.903 953.355 718.339C959.605 726.355 965.012 734.97 969.57 744.022C968.279 733.961 970.176 721.839 973.413 714.024C977.125 705.055 984.109 697.511 990.226 689.753C997.533 680.489 1012.4 684.693 1013.69 696.423C1013.71 696.536 1013.72 696.648 1013.73 696.761C1012.83 697.272 1011.94 697.815 1011.07 698.389C1006.14 701.657 1007.85 709.312 1013.7 710.212L1013.83 710.233C1013.5 713.491 1001.95 723.758 1001.13 726.935C1008.95 757.141 1003.1 761.129 979.048 761.635L977.785 763.434C980.065 769.99 981.899 776.704 983.276 783.505C984.573 789.817 985.475 796.198 985.981 802.607C986.611 810.692 986.559 818.819 985.88 826.891L985.921 826.605C987.649 817.714 992.47 809.408 999.473 803.652C1009.9 795.072 1024.65 791.908 1035.9 785.011C1041.32 781.69 1048.26 785.976 1047.32 792.263L1047.27 792.564C1045.6 793.246 1043.96 794.037 1042.38 794.924C1041.48 795.436 1040.59 795.979 1039.72 796.553C1034.79 799.822 1036.5 807.479 1042.35 808.375L1042.48 808.396C1042.58 808.409 1042.66 808.423 1042.76 808.437C1039.88 815.269 1012.51 824.906 1007.5 830.376C1002.62 856.76 1005.02 855.974 982.576 848.299H982.563C980.113 858.99 976.533 869.436 971.93 879.391L933.909 879.404C933.773 878.981 933.65 878.545 933.527 878.122C937.043 878.34 940.586 878.134 944.048 877.492C941.226 874.029 938.403 870.54 935.581 867.077C935.513 867.009 935.459 866.941 935.404 866.873L935.361 866.82L931.447 853.927C931.756 851.067 932.261 848.23 932.945 845.439Z" fill="#13AF3F"/>
<path d="M383.282 882.887L46.8439 883.004C29.9421 883.009 14.802 874.27 6.34602 859.628C2.11751 852.305 0.00278782 844.273 2.7532e-06 836.239C-0.00278231 828.206 2.10741 820.171 6.32984 812.847L174.442 506.638C182.889 491.989 198.023 483.24 214.925 483.234C231.827 483.229 246.967 491.967 255.424 506.61L423.769 812.741C427.986 820.044 430.096 828.067 430.097 836.095C430.096 844.124 427.987 852.158 423.764 859.483C415.318 874.132 400.184 882.881 383.282 882.887ZM4.22905 836.234C4.22851 843.546 41.3534 827.789 45.1994 834.449C52.8926 847.771 31.4654 878.787 46.8425 878.781C46.8425 878.781 412.425 870.7 420.109 857.373C423.95 850.71 425.87 843.4 425.868 836.092C425.865 828.783 423.94 821.476 420.093 814.815L251.748 508.684C244.076 495.401 230.303 487.451 214.926 487.457C199.556 487.462 4.22962 828.92 4.22905 836.234Z" fill="#595860"/>
<path d="M534.895 874.872C530.678 883.318 728.19 880.722 730.525 880.721C730.525 880.721 786.041 879.494 787.208 877.471C787.791 876.459 788.083 875.349 788.082 874.239C788.082 873.129 787.79 872.019 787.205 871.008L761.641 824.52C760.476 822.503 758.385 821.296 756.05 821.297C755.953 821.297 755.809 821.383 755.624 821.549C721.521 852.041 679.493 872.198 633.763 872.879C585.136 873.602 535.163 874.335 534.895 874.872Z" fill="#595860"/>
<path d="M1.57929e-07 880.488C0.000485434 881.882 1.11917 883 2.51177 883L1104.49 882.618C1105.88 882.618 1107 881.498 1107 880.105C1107 878.712 1105.88 877.593 1104.49 877.594L2.51004 877.975C1.11744 877.976 -0.000485119 879.095 1.57929e-07 880.488Z" fill="#595860"/>
<path d="M852.14 868.298L833.057 868.302L823.953 794.656L852.119 794.648L852.14 868.298Z" fill="#FFB6B6"/>
<path d="M786.757 867.886C786.164 868.888 785.851 872.12 785.852 873.284C785.853 876.863 788.754 879.764 792.331 879.762L851.43 879.742C853.87 879.741 855.848 877.761 855.847 875.319L855.846 872.857C855.846 872.857 858.767 865.457 852.745 856.339C852.745 856.339 845.267 863.483 834.084 852.302L830.786 846.328L806.93 863.797L793.704 865.431C790.811 865.788 788.245 865.377 786.757 867.886Z" fill="#595860"/>
<path d="M778.97 805.302L760.893 811.422L728.695 744.572L755.375 735.539L778.97 805.302Z" fill="#FFB6B6"/>
<path d="M716.899 825.867C716.657 827.006 717.396 830.168 717.769 831.271C718.916 834.661 722.592 836.479 725.981 835.332L781.96 816.374C784.272 815.591 785.511 813.082 784.729 810.769L783.94 808.437C783.94 808.437 784.339 800.491 775.715 793.783C775.715 793.783 770.917 802.947 756.745 795.938L751.708 791.336L734.7 815.53L722.694 821.315C720.068 822.581 717.505 823.014 716.899 825.867Z" fill="#595860"/>
<path d="M749.493 378.069L712.478 500.724L668.781 611.051L737.962 768.608L763.613 757.191L732.919 612.455L797.287 514.242L827.324 820.837L852.979 819.402L887.77 449.325L892.73 368.75L749.493 378.069Z" fill="#595860"/>
<path d="M861.282 106.367L807.125 116.368L802.857 140.613L770.081 156.311L753.04 334.576C753.04 334.576 724.547 371.664 747.355 383.064L892.729 368.753C892.729 368.753 899.846 342.385 892.719 339.884C885.592 337.382 885.57 274.399 885.57 274.399L918.306 144.851L869.841 127.755L861.282 106.367Z" fill="#9C1DDC"/>
<path d="M829.335 105.898C853.488 105.898 873.068 86.3068 873.068 62.1403C873.068 37.9737 853.488 18.3828 829.335 18.3828C805.182 18.3828 785.602 37.9737 785.602 62.1403C785.602 86.3068 805.182 105.898 829.335 105.898Z" fill="#FFB6B6"/>
<path d="M858.3 68.6357C854.811 70.5473 858.122 79.6738 855.941 80.4629C853.419 81.3749 844.227 70.9057 844.113 59.1796C844.079 55.6305 844.895 53.9264 844.11 49.7185C843.083 44.2143 839.932 37.7223 837.014 37.8946C835.285 37.9968 833.596 40.4432 833.47 42.6264C833.293 45.6862 836.264 46.8905 835.836 48.5387C835.021 51.6781 822.547 53.8455 818.106 48.5449C814.625 44.3892 817.295 37.0929 815.738 36.7193C814.591 36.444 813.359 40.461 808.649 45.0002C806.875 46.7104 804.236 49.2538 802.741 48.5502C800.58 47.5334 802.15 40.3672 801.556 40.2722C801.064 40.1935 800.755 45.2304 798.013 49.7345C794.49 55.521 787.223 59.9811 783.832 58.0178C781.755 56.815 781.59 53.4662 781.466 50.9228C781.203 45.5646 773.42 33.2396 775.434 27.5076C779.532 15.8411 786.553 24.0649 789.729 20.1715C794.028 14.9008 797.885 17.7346 805.092 11.8877C812.132 6.17594 812.193 0.435096 816.907 0.0572988C821.153 -0.282922 822.663 4.24837 827.546 3.60151C831.683 3.05354 832.584 -0.460948 835.819 0.0507333C838.781 0.51918 838.976 3.61526 842.912 4.77882C845.425 5.52166 845.978 4.44647 848.822 4.77677C854.742 5.46405 858.718 10.8584 859.463 11.8689C862.334 15.7644 861.22 17.4071 864.194 21.3283C866.758 24.7098 872.442 23.2739 874.578 24.9628C881.561 30.4813 884.561 40.6585 884.621 52.2581C884.664 60.3712 883.607 64.4703 881.247 74.7107C879.456 82.4866 871.158 92.5352 866.584 97.0161C865.356 98.2189 861.914 101.591 859.493 100.566C857.2 99.5958 857.13 95.2304 857.127 94.6541C857.117 92.6718 857.645 90.2189 861.851 84.0087C866.27 77.4854 868.026 76.7409 867.758 74.5456C867.285 70.6651 861.082 67.112 858.3 68.6357Z" fill="#2F2E41"/>
<path d="M705.747 476.593C704.386 487.998 709.163 497.946 716.417 498.813C723.671 499.68 730.655 491.136 732.016 479.731C732.612 474.739 732.031 470.025 730.582 466.231L735.744 417.831L712.992 415.891L710.318 463.81C708.016 467.156 706.343 471.6 705.747 476.593Z" fill="#FFB6B6"/>
<path d="M771.149 155.156C771.149 155.156 759.361 155.324 751.557 170.575C747.409 178.68 725.221 330.231 725.221 330.231L704.781 454.379L739.599 454.555L766.73 336.983L789.554 268.794L771.149 155.156Z" fill="#9C1DDC"/>
<path d="M839.207 411.467C831.795 420.241 830.31 431.177 835.89 435.893C841.469 440.61 852.001 437.32 859.413 428.546C862.657 424.705 864.766 420.45 865.644 416.483L896.584 378.91L878.655 364.768L850.057 403.309C846.294 404.836 842.452 407.626 839.207 411.467Z" fill="#FFB6B6"/>
<path d="M893.362 146.995C893.362 146.995 910.461 134.154 924.721 154.115C938.98 174.075 944.738 338.071 944.738 338.071L882.244 409.45L857.327 388.092L903.394 305.285L853.477 211.182L893.362 146.995Z" fill="#9C1DDC"/>
<path d="M221.044 826.598C283.973 826.598 334.987 775.556 334.987 712.592C334.987 649.628 283.973 598.586 221.044 598.586C158.115 598.586 107.102 649.628 107.102 712.592C107.102 775.556 158.115 826.598 221.044 826.598Z" fill="#FF6363"/>
<path d="M221.063 782.482C226.841 782.482 231.525 777.796 231.525 772.015C231.525 766.233 226.841 761.547 221.063 761.547C215.285 761.547 210.602 766.233 210.602 772.015C210.602 777.796 215.285 782.482 221.063 782.482Z" fill="white"/>
<path d="M221.021 642.702C220.06 649.092 221.781 650.429 221.791 677.974C221.801 705.52 227.513 742.451 221.055 742.453C214.597 742.456 212.235 666.237 189.812 659.491C163.447 651.56 224.132 622.019 221.021 642.702Z" fill="white"/>
<path d="M67.0211 592.999L38.9962 609.543C59.6937 608.991 87.2819 615.122 107.717 622.241C96.8733 603.516 85.658 577.572 82.3023 557.139L71.4864 587.36C4.5434 518.881 -10.8218 421.452 35.4479 353.141L33.2969 350.273C-15.033 421.626 -2.83251 522.062 67.0211 592.999Z" fill="#595860"/>
<path d="M182.772 327.401C185.332 315.881 187.764 304.617 190.068 293.609C191.007 289.001 191.988 284.137 193.012 279.017C194.036 273.897 195.018 268.863 195.956 263.913C196.895 258.964 197.791 254.185 198.644 249.577C199.498 244.969 200.223 240.745 200.82 236.905C203.295 236.137 205.727 235.497 208.116 234.985C210.506 234.388 212.938 233.876 215.412 233.449C217.972 233.023 220.362 232.809 222.58 232.809C226.42 232.809 229.62 233.449 232.18 234.729C234.826 236.009 236.959 237.759 238.58 239.977C240.202 242.111 241.354 244.628 242.036 247.529C242.719 250.431 243.06 253.545 243.06 256.873C243.06 261.652 242.164 266.26 240.372 270.697C238.666 275.135 236.319 279.103 233.332 282.601C230.431 286.015 227.06 288.745 223.22 290.793C219.466 292.841 215.54 293.865 211.444 293.865H210.036C209.354 296.767 208.714 299.924 208.116 303.337C207.519 306.751 207.007 309.908 206.58 312.809C205.983 316.223 205.428 319.636 204.916 323.049L182.772 327.401ZM218.484 248.297C217.546 253.929 216.607 259.263 215.668 264.297C214.73 269.332 213.706 274.708 212.596 280.425C213.962 280.084 215.37 279.316 216.82 278.121C218.356 276.841 219.764 275.22 221.044 273.257C222.324 271.209 223.348 268.863 224.116 266.217C224.884 263.572 225.268 260.799 225.268 257.897C225.268 254.74 224.543 252.351 223.092 250.729C221.727 249.108 220.191 248.297 218.484 248.297ZM286.76 324.713C284.627 325.055 282.28 325.439 279.72 325.865C277.16 326.292 274.856 326.676 272.808 327.017C273.15 324.201 273.491 321.428 273.832 318.697C274.088 316.308 274.302 313.919 274.472 311.529C274.728 309.14 274.942 307.092 275.112 305.385H263.976L258.856 323.817C256.979 324.073 254.76 324.372 252.2 324.713C249.64 324.969 247.251 325.225 245.032 325.481C242.302 325.823 239.614 326.164 236.968 326.505C240.382 315.156 243.752 303.977 247.08 292.969C248.446 288.361 249.854 283.54 251.304 278.505C252.84 273.471 254.334 268.479 255.784 263.529C257.32 258.495 258.771 253.673 260.136 249.065C261.502 244.457 262.696 240.233 263.72 236.393C269.523 235.967 275.411 235.455 281.384 234.857C287.443 234.26 293.331 233.449 299.048 232.425C298.792 235.156 298.494 238.569 298.152 242.665C297.896 246.676 297.64 251.071 297.384 255.849C297.128 260.628 296.872 265.62 296.616 270.825C296.36 276.031 296.104 281.151 295.848 286.185C295.422 297.961 294.952 310.463 294.44 323.689C291.88 324.116 289.32 324.457 286.76 324.713ZM267.048 292.585C267.39 292.585 267.987 292.585 268.84 292.585C269.779 292.5 270.718 292.457 271.656 292.457C272.68 292.372 273.619 292.329 274.472 292.329C275.326 292.244 275.923 292.159 276.264 292.073C276.264 291.561 276.307 290.708 276.392 289.513C276.563 288.233 276.691 286.825 276.776 285.289C276.947 283.668 277.118 281.919 277.288 280.041C277.459 278.164 277.63 276.329 277.8 274.537C278.142 270.185 278.568 265.492 279.08 260.457L279.848 249.321L277.928 249.449L274.984 260.457L267.048 292.585ZM372.663 278.505C372.066 287.209 370.359 294.804 367.543 301.289C364.727 307.689 361.314 313.065 357.303 317.417C353.378 321.769 349.111 325.012 344.503 327.145C339.981 329.279 335.671 330.345 331.575 330.345C328.418 330.345 325.389 329.663 322.487 328.297C319.671 326.932 317.197 324.884 315.063 322.153C313.015 319.337 311.394 315.839 310.199 311.657C309.005 307.476 308.407 302.569 308.407 296.937C308.407 285.929 309.986 276.329 313.143 268.137C316.301 259.945 320.269 253.119 325.047 247.657C329.911 242.196 335.074 238.143 340.535 235.497C346.082 232.852 351.245 231.529 356.023 231.529C359.437 231.529 362.381 232.127 364.855 233.321C367.415 234.516 369.506 236.137 371.127 238.185C372.749 240.148 373.901 242.495 374.583 245.225C375.351 247.871 375.735 250.687 375.735 253.673L358.199 257.001C357.431 253.588 356.407 251.156 355.127 249.705C353.847 248.255 352.397 247.529 350.775 247.529C348.642 247.529 346.295 249.065 343.735 252.137C341.175 255.124 338.786 259.007 336.567 263.785C334.349 268.564 332.471 273.812 330.935 279.529C329.399 285.247 328.546 290.879 328.375 296.425C328.375 301.716 329.143 305.513 330.679 307.817C332.301 310.036 334.349 311.145 336.823 311.145C338.53 311.145 340.279 310.719 342.071 309.865C343.949 309.012 345.613 307.817 347.063 306.281C348.514 304.66 349.709 302.825 350.647 300.777C351.671 298.644 352.226 296.34 352.311 293.865L338.615 295.913L341.047 283.241C345.058 282.729 348.983 282.217 352.823 281.705C356.066 281.279 359.479 280.767 363.063 280.169C366.733 279.572 369.933 279.017 372.663 278.505ZM375.93 327.401L392.698 236.393L433.146 232.937C432.549 234.815 432.037 236.735 431.61 238.697C431.184 240.319 430.757 242.025 430.33 243.817C429.989 245.524 429.69 247.06 429.434 248.425C428.581 248.511 427.344 248.596 425.722 248.681C424.186 248.681 422.522 248.724 420.73 248.809C418.938 248.809 417.104 248.809 415.226 248.809C413.434 248.809 411.856 248.809 410.49 248.809L406.01 271.721C408.656 271.551 411.13 271.423 413.434 271.337C415.312 271.252 417.232 271.209 419.194 271.209C421.157 271.209 422.608 271.167 423.546 271.081C423.205 273.471 422.864 275.817 422.522 278.121C422.266 280.425 421.925 282.772 421.498 285.161C420.645 285.247 419.237 285.332 417.274 285.417C415.397 285.417 413.477 285.46 411.514 285.545C409.296 285.631 406.864 285.716 404.218 285.801L399.866 309.353L418.554 306.409L417.274 321.001L375.93 327.401Z" fill="#9C1DDC"/>
<path d="M417.265 463.913C419.825 451.625 422.257 439.721 424.561 428.201C425.414 423.252 426.31 418.132 427.249 412.841C428.273 407.551 429.212 402.345 430.065 397.225C430.918 392.02 431.686 387.071 432.369 382.377C433.052 377.599 433.564 373.289 433.905 369.449C435.014 369.535 435.953 369.577 436.721 369.577C437.489 369.577 438.385 369.577 439.409 369.577C440.604 369.577 442.054 369.577 443.761 369.577C445.468 369.492 447.174 369.407 448.881 369.321C450.588 369.236 452.422 369.151 454.385 369.065C455.58 375.039 456.646 380.799 457.585 386.345C458.524 391.209 459.462 396.201 460.401 401.321C461.425 406.441 462.321 410.793 463.089 414.377C463.43 412.671 463.814 410.708 464.241 408.489C464.668 406.185 465.137 403.796 465.649 401.321C466.161 398.847 466.63 396.372 467.057 393.897C467.569 391.337 468.081 388.82 468.593 386.345C469.788 380.799 471.025 375.081 472.305 369.193L487.921 367.273C485.02 380.329 482.46 392.703 480.241 404.393C479.217 409.428 478.193 414.548 477.169 419.753C476.23 424.873 475.334 429.823 474.481 434.601C473.628 439.295 472.902 443.689 472.305 447.785C471.708 451.796 471.238 455.167 470.897 457.897C470.641 457.897 469.617 458.111 467.825 458.537C466.118 458.879 464.113 459.305 461.809 459.817C459.59 460.329 457.329 460.841 455.025 461.353C452.806 461.865 451.142 462.335 450.033 462.761C449.521 455.935 448.966 449.449 448.369 443.305C448.113 440.66 447.814 437.972 447.473 435.241C447.217 432.425 446.918 429.737 446.577 427.177C446.236 424.617 445.894 422.228 445.553 420.009C445.212 417.791 444.87 415.871 444.529 414.249C444.273 415.871 443.932 417.748 443.505 419.881C443.078 422.015 442.652 424.276 442.225 426.665C441.798 429.055 441.372 431.572 440.945 434.217C440.518 436.777 440.049 439.252 439.537 441.641C438.428 447.359 437.233 453.332 435.953 459.561L417.265 463.913ZM554.18 394.025C554.18 401.023 553.412 407.636 551.876 413.865C550.425 420.009 548.463 425.684 545.988 430.889C543.513 436.009 540.612 440.617 537.284 444.713C534.041 448.724 530.628 452.18 527.044 455.081C523.46 457.897 519.833 460.073 516.164 461.609C512.495 463.06 508.996 463.785 505.668 463.785C502.852 463.785 500.292 463.273 497.988 462.249C495.684 461.14 493.679 459.561 491.972 457.513C490.265 455.38 488.9 452.692 487.876 449.449C486.937 446.121 486.468 442.153 486.468 437.545C486.468 432.767 487.065 427.732 488.26 422.441C489.455 417.151 491.076 411.903 493.124 406.697C495.172 401.492 497.689 396.543 500.676 391.849C503.663 387.156 506.948 383.017 510.532 379.433C514.116 375.764 517.956 372.863 522.052 370.729C526.148 368.596 530.415 367.529 534.852 367.529C538.692 367.529 541.849 368.34 544.324 369.961C546.884 371.497 548.847 373.545 550.212 376.105C551.663 378.58 552.687 381.396 553.284 384.553C553.881 387.711 554.18 390.868 554.18 394.025ZM505.54 434.217C505.54 435.156 505.711 436.137 506.052 437.161C506.393 438.185 506.863 439.081 507.46 439.849C508.057 440.617 508.783 441.3 509.636 441.897C510.575 442.409 511.556 442.665 512.58 442.665C516.42 442.665 519.833 441.343 522.82 438.697C525.807 436.052 528.281 432.809 530.244 428.969C532.207 425.129 533.7 421.033 534.724 416.681C535.833 412.329 536.388 408.361 536.388 404.777C536.388 403.753 536.303 402.644 536.132 401.449C536.047 400.255 535.791 399.145 535.364 398.121C535.023 397.097 534.425 396.244 533.572 395.561C532.804 394.793 531.737 394.409 530.372 394.409C527.641 394.409 525.124 395.092 522.82 396.457C520.516 397.823 518.425 399.657 516.548 401.961C514.756 404.18 513.177 406.74 511.812 409.641C510.447 412.457 509.252 415.359 508.228 418.345C507.289 421.247 506.607 424.105 506.18 426.921C505.753 429.737 505.54 432.169 505.54 434.217ZM565.145 463.401C567.108 454.015 568.985 444.756 570.777 435.625C571.545 431.785 572.313 427.775 573.081 423.593C573.849 419.412 574.574 415.316 575.257 411.305C576.025 407.209 576.665 403.284 577.177 399.529C577.774 395.689 578.286 392.191 578.713 389.033C576.75 388.777 574.745 388.692 572.697 388.777C570.734 388.863 568.772 388.607 566.809 388.009C566.894 386.644 566.937 385.065 566.937 383.273C566.937 381.481 566.98 379.689 567.065 377.897C567.15 375.935 567.236 373.844 567.321 371.625C569.54 371.796 571.758 371.924 573.977 372.009C576.196 372.095 578.414 372.137 580.633 372.137C584.985 372.137 589.166 372.052 593.177 371.881C597.273 371.625 601.028 371.369 604.441 371.113C607.94 370.772 611.353 370.388 614.681 369.961L613.273 376.873C612.846 378.836 612.42 380.841 611.993 382.889C611.652 384.937 611.31 386.687 610.969 388.137C609.092 388.649 607.172 389.033 605.209 389.289C603.332 389.46 601.454 389.716 599.577 390.057C598.98 392.959 598.34 396.201 597.657 399.785C596.974 403.284 596.292 406.953 595.609 410.793C595.012 414.548 594.414 418.388 593.817 422.313C593.22 426.239 592.622 429.993 592.025 433.577C590.66 442.025 589.38 450.772 588.185 459.817L565.145 463.401Z" fill="#9C1DDC"/>
<path d="M350.728 619.389C348.339 619.816 345.736 620.328 342.92 620.925C340.104 621.522 337.63 622.077 335.496 622.589C336.52 618.92 337.502 614.824 338.44 610.301C339.464 605.693 340.446 600.872 341.384 595.837C342.408 590.802 343.347 585.725 344.2 580.605C345.139 575.4 346.035 570.408 346.888 565.629C348.68 554.28 350.472 542.546 352.264 530.429L395.144 528.253L391.432 543.997H371.336L367.368 566.781C370.014 566.696 372.531 566.653 374.92 566.653C376.883 566.653 378.888 566.653 380.936 566.653C382.984 566.653 384.563 566.61 385.672 566.525C385.416 568.914 385.075 571.261 384.648 573.565C384.307 575.869 383.966 578.173 383.624 580.477C382.515 580.477 380.936 580.477 378.888 580.477C376.84 580.392 374.707 580.306 372.488 580.221C370.355 580.136 367.923 580.05 365.192 579.965L359.304 617.725C356.403 618.237 353.544 618.792 350.728 619.389ZM458.289 553.213C458.289 560.21 457.521 566.824 455.985 573.053C454.535 579.197 452.572 584.872 450.097 590.077C447.623 595.197 444.721 599.805 441.393 603.901C438.151 607.912 434.737 611.368 431.153 614.269C427.569 617.085 423.943 619.261 420.273 620.797C416.604 622.248 413.105 622.973 409.777 622.973C406.961 622.973 404.401 622.461 402.097 621.437C399.793 620.328 397.788 618.749 396.081 616.701C394.375 614.568 393.009 611.88 391.985 608.637C391.047 605.309 390.577 601.341 390.577 596.733C390.577 591.954 391.175 586.92 392.369 581.629C393.564 576.338 395.185 571.09 397.233 565.885C399.281 560.68 401.799 555.73 404.785 551.037C407.772 546.344 411.057 542.205 414.641 538.621C418.225 534.952 422.065 532.05 426.161 529.917C430.257 527.784 434.524 526.717 438.961 526.717C442.801 526.717 445.959 527.528 448.433 529.149C450.993 530.685 452.956 532.733 454.321 535.293C455.772 537.768 456.796 540.584 457.393 543.741C457.991 546.898 458.289 550.056 458.289 553.213ZM409.649 593.405C409.649 594.344 409.82 595.325 410.161 596.349C410.503 597.373 410.972 598.269 411.569 599.037C412.167 599.805 412.892 600.488 413.745 601.085C414.684 601.597 415.665 601.853 416.689 601.853C420.529 601.853 423.943 600.53 426.929 597.885C429.916 595.24 432.391 591.997 434.353 588.157C436.316 584.317 437.809 580.221 438.833 575.869C439.943 571.517 440.497 567.549 440.497 563.965C440.497 562.941 440.412 561.832 440.241 560.637C440.156 559.442 439.9 558.333 439.473 557.309C439.132 556.285 438.535 555.432 437.681 554.749C436.913 553.981 435.847 553.597 434.481 553.597C431.751 553.597 429.233 554.28 426.929 555.645C424.625 557.01 422.535 558.845 420.657 561.149C418.865 563.368 417.287 565.928 415.921 568.829C414.556 571.645 413.361 574.546 412.337 577.533C411.399 580.434 410.716 583.293 410.289 586.109C409.863 588.925 409.649 591.357 409.649 593.405ZM510.982 597.501C509.788 602.365 508.081 606.504 505.862 609.917C503.729 613.33 501.169 616.146 498.182 618.365C495.281 620.584 492.166 622.205 488.838 623.229C485.51 624.253 482.182 624.765 478.854 624.765C476.892 624.765 474.886 624.424 472.838 623.741C470.79 623.144 468.956 622.205 467.334 620.925C465.713 619.645 464.348 618.024 463.238 616.061C462.214 614.098 461.702 611.794 461.702 609.149C461.702 608.808 461.702 608.466 461.702 608.125C461.702 607.784 461.745 607.442 461.83 607.101C462.172 603.602 462.726 599.378 463.494 594.429C464.262 589.48 465.073 584.317 465.926 578.941C466.78 573.565 467.718 568.189 468.742 562.813C469.766 557.352 470.662 552.402 471.43 547.965C472.284 543.528 473.009 539.858 473.606 536.957C474.204 533.97 474.588 532.136 474.758 531.453C476.55 531.282 478.684 531.069 481.158 530.813C483.633 530.557 485.937 530.344 488.07 530.173C490.716 529.917 493.318 529.661 495.878 529.405C493.66 539.73 491.697 549.074 489.99 557.437C489.222 561.021 488.454 564.605 487.686 568.189C487.004 571.773 486.321 575.058 485.638 578.045C485.041 581.032 484.486 583.634 483.974 585.853C483.548 587.986 483.164 589.736 482.822 591.101C482.566 592.466 482.225 594.216 481.798 596.349C481.457 598.397 481.286 600.274 481.286 601.981C481.286 603.346 481.628 604.498 482.31 605.437C482.993 606.29 483.846 606.717 484.87 606.717C486.321 606.717 487.516 606.162 488.454 605.053C489.393 603.858 490.161 602.45 490.758 600.829C491.441 599.208 491.91 597.586 492.166 595.965C492.508 594.258 492.806 592.936 493.062 591.997C493.574 589.522 494.129 586.792 494.726 583.805C495.409 580.733 496.049 577.576 496.646 574.333C497.329 571.005 497.969 567.634 498.566 564.221C499.249 560.808 499.889 557.48 500.486 554.237C501.937 546.728 503.345 538.962 504.71 530.941L524.166 529.661C524.166 529.661 523.953 530.77 523.526 532.989C523.1 535.208 522.545 538.152 521.862 541.821C521.18 545.49 520.412 549.672 519.558 554.365C518.79 559.058 517.894 563.965 516.87 569.085C515.846 574.12 514.822 579.112 513.798 584.061C512.86 588.925 511.921 593.405 510.982 597.501ZM519.999 623.101C522.559 610.813 524.991 598.909 527.295 587.389C528.149 582.44 529.045 577.32 529.983 572.029C531.007 566.738 531.946 561.533 532.799 556.413C533.653 551.208 534.421 546.258 535.103 541.565C535.786 536.786 536.298 532.477 536.639 528.637C537.749 528.722 538.687 528.765 539.455 528.765C540.223 528.765 541.119 528.765 542.143 528.765C543.338 528.765 544.789 528.765 546.495 528.765C548.202 528.68 549.909 528.594 551.615 528.509C553.322 528.424 555.157 528.338 557.119 528.253C558.314 534.226 559.381 539.986 560.319 545.533C561.258 550.397 562.197 555.389 563.135 560.509C564.159 565.629 565.055 569.981 565.823 573.565C566.165 571.858 566.549 569.896 566.975 567.677C567.402 565.373 567.871 562.984 568.383 560.509C568.895 558.034 569.365 555.56 569.791 553.085C570.303 550.525 570.815 548.008 571.327 545.533C572.522 539.986 573.759 534.269 575.039 528.381L590.655 526.461C587.754 539.517 585.194 551.89 582.975 563.581C581.951 568.616 580.927 573.736 579.903 578.941C578.965 584.061 578.069 589.01 577.215 593.789C576.362 598.482 575.637 602.877 575.039 606.973C574.442 610.984 573.973 614.354 573.631 617.085C573.375 617.085 572.351 617.298 570.559 617.725C568.853 618.066 566.847 618.493 564.543 619.005C562.325 619.517 560.063 620.029 557.759 620.541C555.541 621.053 553.877 621.522 552.767 621.949C552.255 615.122 551.701 608.637 551.103 602.493C550.847 599.848 550.549 597.16 550.207 594.429C549.951 591.613 549.653 588.925 549.311 586.365C548.97 583.805 548.629 581.416 548.287 579.197C547.946 576.978 547.605 575.058 547.263 573.437C547.007 575.058 546.666 576.936 546.239 579.069C545.813 581.202 545.386 583.464 544.959 585.853C544.533 588.242 544.106 590.76 543.679 593.405C543.253 595.965 542.783 598.44 542.271 600.829C541.162 606.546 539.967 612.52 538.687 618.749L519.999 623.101ZM650.386 557.053C650.386 561.49 649.746 566.226 648.466 571.261C647.186 576.21 645.394 581.16 643.09 586.109C640.786 590.973 637.928 595.666 634.514 600.189C631.186 604.626 627.389 608.552 623.122 611.965C618.856 615.293 614.162 617.981 609.042 620.029C604.008 622.077 598.632 623.101 592.914 623.101C591.72 623.101 590.525 623.016 589.33 622.845C588.136 622.76 586.941 622.632 585.746 622.461C588.05 610.685 590.312 599.208 592.53 588.029C593.384 583.336 594.28 578.472 595.218 573.437C596.157 568.317 597.053 563.282 597.906 558.333C598.76 553.384 599.57 548.648 600.338 544.125C601.192 539.602 601.874 535.506 602.386 531.837C606.056 531.154 609.768 530.514 613.522 529.917C617.277 529.32 621.117 529.021 625.042 529.021C629.65 529.021 633.533 529.746 636.69 531.197C639.933 532.648 642.536 534.653 644.498 537.213C646.546 539.773 648.04 542.76 648.978 546.173C649.917 549.586 650.386 553.213 650.386 557.053ZM620.178 547.069C619.24 552.104 618.258 556.925 617.234 561.533C616.21 566.141 615.186 570.792 614.162 575.485C613.138 580.178 612.114 585.085 611.09 590.205C610.066 595.325 609.085 600.914 608.146 606.973C610.194 605.608 612.157 603.773 614.034 601.469C615.997 599.08 617.832 596.349 619.538 593.277C621.245 590.205 622.781 586.962 624.146 583.549C625.597 580.136 626.834 576.808 627.858 573.565C628.882 570.322 629.65 567.293 630.162 564.477C630.76 561.661 631.058 559.229 631.058 557.181C631.058 554.024 630.162 551.549 628.37 549.757C626.664 547.965 623.933 547.069 620.178 547.069Z" fill="#9C1DDC"/>
<path d="M806.656 393.82L849.654 380.746L872.957 457.383L829.959 470.457L806.656 393.82Z" fill="#595860"/>
<path d="M370.922 97.6114C370.922 104.609 370.154 111.222 368.618 117.451C367.168 123.595 365.205 129.27 362.73 134.475C360.256 139.595 357.354 144.203 354.026 148.299C350.784 152.31 347.37 155.766 343.786 158.667C340.202 161.483 336.576 163.659 332.906 165.195C329.237 166.646 325.738 167.371 322.41 167.371C319.594 167.371 317.034 166.859 314.73 165.835C312.426 164.726 310.421 163.147 308.714 161.099C307.008 158.966 305.642 156.278 304.618 153.035C303.68 149.707 303.21 145.739 303.21 141.131C303.21 136.353 303.808 131.318 305.002 126.027C306.197 120.737 307.818 115.489 309.866 110.283C311.914 105.078 314.432 100.129 317.418 95.4354C320.405 90.742 323.69 86.6034 327.274 83.0194C330.858 79.35 334.698 76.4487 338.794 74.3154C342.89 72.182 347.157 71.1154 351.594 71.1154C355.434 71.1154 358.592 71.926 361.066 73.5474C363.626 75.0834 365.589 77.1314 366.954 79.6914C368.405 82.166 369.429 84.982 370.026 88.1394C370.624 91.2967 370.922 94.454 370.922 97.6114ZM322.282 137.803C322.282 138.742 322.453 139.723 322.794 140.747C323.136 141.771 323.605 142.667 324.202 143.435C324.8 144.203 325.525 144.886 326.378 145.483C327.317 145.995 328.298 146.251 329.322 146.251C333.162 146.251 336.576 144.929 339.562 142.283C342.549 139.638 345.024 136.395 346.986 132.555C348.949 128.715 350.442 124.619 351.466 120.267C352.576 115.915 353.13 111.947 353.13 108.363C353.13 107.339 353.045 106.23 352.874 105.035C352.789 103.841 352.533 102.731 352.106 101.707C351.765 100.683 351.168 99.83 350.314 99.1474C349.546 98.3794 348.48 97.9954 347.114 97.9954C344.384 97.9954 341.866 98.678 339.562 100.043C337.258 101.409 335.168 103.243 333.29 105.547C331.498 107.766 329.92 110.326 328.554 113.227C327.189 116.043 325.994 118.945 324.97 121.931C324.032 124.833 323.349 127.691 322.922 130.507C322.496 133.323 322.282 135.755 322.282 137.803ZM442.047 97.6114C442.047 104.609 441.279 111.222 439.743 117.451C438.293 123.595 436.33 129.27 433.855 134.475C431.381 139.595 428.479 144.203 425.151 148.299C421.909 152.31 418.495 155.766 414.911 158.667C411.327 161.483 407.701 163.659 404.031 165.195C400.362 166.646 396.863 167.371 393.535 167.371C390.719 167.371 388.159 166.859 385.855 165.835C383.551 164.726 381.546 163.147 379.839 161.099C378.133 158.966 376.767 156.278 375.743 153.035C374.805 149.707 374.335 145.739 374.335 141.131C374.335 136.353 374.933 131.318 376.127 126.027C377.322 120.737 378.943 115.489 380.991 110.283C383.039 105.078 385.557 100.129 388.543 95.4354C391.53 90.742 394.815 86.6034 398.399 83.0194C401.983 79.35 405.823 76.4487 409.919 74.3154C414.015 72.182 418.282 71.1154 422.719 71.1154C426.559 71.1154 429.717 71.926 432.191 73.5474C434.751 75.0834 436.714 77.1314 438.079 79.6914C439.53 82.166 440.554 84.982 441.151 88.1394C441.749 91.2967 442.047 94.454 442.047 97.6114ZM393.407 137.803C393.407 138.742 393.578 139.723 393.919 140.747C394.261 141.771 394.73 142.667 395.327 143.435C395.925 144.203 396.65 144.886 397.503 145.483C398.442 145.995 399.423 146.251 400.447 146.251C404.287 146.251 407.701 144.929 410.687 142.283C413.674 139.638 416.149 136.395 418.111 132.555C420.074 128.715 421.567 124.619 422.591 120.267C423.701 115.915 424.255 111.947 424.255 108.363C424.255 107.339 424.17 106.23 423.999 105.035C423.914 103.841 423.658 102.731 423.231 101.707C422.89 100.683 422.293 99.83 421.439 99.1474C420.671 98.3794 419.605 97.9954 418.239 97.9954C415.509 97.9954 412.991 98.678 410.687 100.043C408.383 101.409 406.293 103.243 404.415 105.547C402.623 107.766 401.045 110.326 399.679 113.227C398.314 116.043 397.119 118.945 396.095 121.931C395.157 124.833 394.474 127.691 394.047 130.507C393.621 133.323 393.407 135.755 393.407 137.803ZM441.108 166.987C443.668 155.467 446.1 144.203 448.404 133.195C449.343 128.587 450.324 123.723 451.348 118.603C452.372 113.483 453.354 108.449 454.292 103.499C455.231 98.55 456.127 93.7714 456.98 89.1634C457.834 84.5554 458.559 80.3314 459.156 76.4914C461.631 75.7234 464.063 75.0834 466.452 74.5714C468.842 73.974 471.274 73.462 473.748 73.0354C476.308 72.6087 478.698 72.3954 480.916 72.3954C484.756 72.3954 487.956 73.0354 490.516 74.3154C493.162 75.5954 495.295 77.3447 496.916 79.5634C498.538 81.6967 499.69 84.214 500.372 87.1154C501.055 90.0167 501.396 93.1314 501.396 96.4594C501.396 101.238 500.5 105.846 498.708 110.283C497.002 114.721 494.655 118.689 491.668 122.187C488.767 125.601 485.396 128.331 481.556 130.379C477.802 132.427 473.876 133.451 469.78 133.451H468.372C467.69 136.353 467.05 139.51 466.452 142.923C465.855 146.337 465.343 149.494 464.916 152.395C464.319 155.809 463.764 159.222 463.252 162.635L441.108 166.987ZM476.82 87.8834C475.882 93.5154 474.943 98.8487 474.004 103.883C473.066 108.918 472.042 114.294 470.932 120.011C472.298 119.67 473.706 118.902 475.156 117.707C476.692 116.427 478.1 114.806 479.38 112.843C480.66 110.795 481.684 108.449 482.452 105.803C483.22 103.158 483.604 100.385 483.604 97.4834C483.604 94.326 482.879 91.9367 481.428 90.3154C480.063 88.694 478.527 87.8834 476.82 87.8834ZM554.696 135.243C554.696 140.022 553.758 144.374 551.88 148.299C550.088 152.139 547.614 155.467 544.456 158.283C541.384 161.099 537.715 163.275 533.448 164.811C529.267 166.347 524.744 167.115 519.88 167.115C516.467 167.115 513.054 166.219 509.64 164.427C506.227 162.55 502.942 159.606 499.784 155.595L509.256 137.035C509.854 138.145 510.75 139.297 511.944 140.491C513.139 141.601 514.462 142.582 515.912 143.435C517.448 144.289 518.942 145.014 520.392 145.611C521.928 146.123 523.294 146.379 524.488 146.379C525.512 146.379 526.579 146.209 527.688 145.867C528.798 145.526 529.822 145.014 530.76 144.331C531.699 143.649 532.424 142.881 532.936 142.027C533.534 141.089 533.832 140.022 533.832 138.827C533.832 136.779 533.15 134.902 531.784 133.195C530.504 131.403 528.883 129.739 526.92 128.203C524.958 126.582 522.824 124.961 520.52 123.339C518.216 121.718 516.083 120.011 514.12 118.219C512.243 116.427 510.622 114.422 509.256 112.203C507.891 109.985 507.208 107.51 507.208 104.779C507.208 100.342 508.531 96.2034 511.176 92.3634C513.822 88.5234 517.107 85.238 521.032 82.5074C525.043 79.6914 529.395 77.4727 534.088 75.8514C538.782 74.23 543.219 73.4194 547.4 73.4194C549.704 73.4194 551.88 73.718 553.928 74.3154C555.976 74.8274 557.726 75.7234 559.176 77.0034C560.712 78.198 561.907 79.734 562.76 81.6114C563.699 83.4887 564.168 85.8354 564.168 88.6514C564.168 89.846 564.04 91.0407 563.784 92.2354C563.614 93.43 563.443 94.71 563.272 96.0754L544.712 101.451C544.883 100.769 545.011 100.086 545.096 99.4034C545.267 98.7207 545.352 98.038 545.352 97.3554C545.352 94.7954 544.883 92.9607 543.944 91.8514C543.091 90.6567 541.939 90.0594 540.488 90.0594C539.806 90.0594 538.952 90.3154 537.928 90.8274C536.99 91.3394 536.008 92.022 534.984 92.8754C534.046 93.6434 533.235 94.582 532.552 95.6914C531.87 96.8007 531.528 97.9954 531.528 99.2754C531.528 101.323 532.083 103.03 533.192 104.395C534.387 105.761 535.838 107.041 537.544 108.235C539.251 109.43 541.086 110.667 543.048 111.947C545.096 113.142 546.974 114.721 548.68 116.683C550.387 118.646 551.795 121.121 552.904 124.107C554.099 127.009 554.696 130.721 554.696 135.243ZM586.848 136.523C584.374 136.523 581.899 136.609 579.424 136.779C576.95 136.95 574.475 137.121 572 137.291C574.646 126.795 577.206 116.342 579.68 105.931C582.24 95.5207 584.886 85.0674 587.616 74.5714C589.238 74.3154 591.072 74.0594 593.12 73.8034C595.254 73.5474 597.387 73.2487 599.52 72.9074C601.654 72.566 603.702 72.2674 605.664 72.0114C607.712 71.7554 609.419 71.4994 610.784 71.2434C606.176 81.9954 601.952 92.8327 598.112 103.755C594.358 114.593 590.603 125.515 586.848 136.523ZM588.128 156.619C588.128 158.241 587.744 159.862 586.976 161.483C586.294 163.105 585.27 164.555 583.904 165.835C582.539 167.03 580.832 167.969 578.784 168.651C576.736 169.419 574.39 169.803 571.744 169.803C569.952 169.803 568.331 169.462 566.88 168.779C565.43 168.097 564.235 167.201 563.296 166.091C562.443 164.897 561.76 163.574 561.248 162.123C560.736 160.673 560.48 159.222 560.48 157.771C560.48 156.15 560.736 154.614 561.248 153.163C561.76 151.627 562.528 150.305 563.552 149.195C564.662 148.001 565.984 147.019 567.52 146.251C569.142 145.483 571.062 145.099 573.28 145.099C578.23 145.099 581.942 146.294 584.416 148.683C586.891 150.987 588.128 153.633 588.128 156.619ZM628.473 136.523C625.999 136.523 623.524 136.609 621.049 136.779C618.575 136.95 616.1 137.121 613.625 137.291C616.271 126.795 618.831 116.342 621.305 105.931C623.865 95.5207 626.511 85.0674 629.241 74.5714C630.863 74.3154 632.697 74.0594 634.745 73.8034C636.879 73.5474 639.012 73.2487 641.145 72.9074C643.279 72.566 645.327 72.2674 647.289 72.0114C649.337 71.7554 651.044 71.4994 652.409 71.2434C647.801 81.9954 643.577 92.8327 639.737 103.755C635.983 114.593 632.228 125.515 628.473 136.523ZM629.753 156.619C629.753 158.241 629.369 159.862 628.601 161.483C627.919 163.105 626.895 164.555 625.529 165.835C624.164 167.03 622.457 167.969 620.409 168.651C618.361 169.419 616.015 169.803 613.369 169.803C611.577 169.803 609.956 169.462 608.505 168.779C607.055 168.097 605.86 167.201 604.921 166.091C604.068 164.897 603.385 163.574 602.873 162.123C602.361 160.673 602.105 159.222 602.105 157.771C602.105 156.15 602.361 154.614 602.873 153.163C603.385 151.627 604.153 150.305 605.177 149.195C606.287 148.001 607.609 147.019 609.145 146.251C610.767 145.483 612.687 145.099 614.905 145.099C619.855 145.099 623.567 146.294 626.041 148.683C628.516 150.987 629.753 153.633 629.753 156.619ZM670.098 136.523C667.624 136.523 665.149 136.609 662.674 136.779C660.2 136.95 657.725 137.121 655.25 137.291C657.896 126.795 660.456 116.342 662.93 105.931C665.49 95.5207 668.136 85.0674 670.866 74.5714C672.488 74.3154 674.322 74.0594 676.37 73.8034C678.504 73.5474 680.637 73.2487 682.77 72.9074C684.904 72.566 686.952 72.2674 688.914 72.0114C690.962 71.7554 692.669 71.4994 694.034 71.2434C689.426 81.9954 685.202 92.8327 681.362 103.755C677.608 114.593 673.853 125.515 670.098 136.523ZM671.378 156.619C671.378 158.241 670.994 159.862 670.226 161.483C669.544 163.105 668.52 164.555 667.154 165.835C665.789 167.03 664.082 167.969 662.034 168.651C659.986 169.419 657.64 169.803 654.994 169.803C653.202 169.803 651.581 169.462 650.13 168.779C648.68 168.097 647.485 167.201 646.546 166.091C645.693 164.897 645.01 163.574 644.498 162.123C643.986 160.673 643.73 159.222 643.73 157.771C643.73 156.15 643.986 154.614 644.498 153.163C645.01 151.627 645.778 150.305 646.802 149.195C647.912 148.001 649.234 147.019 650.77 146.251C652.392 145.483 654.312 145.099 656.53 145.099C661.48 145.099 665.192 146.294 667.666 148.683C670.141 150.987 671.378 153.633 671.378 156.619Z" fill="#9C1DDC"/>
</g>
<defs>
<clipPath id="clip0_243_200">
<rect width="1107" height="883" fill="white"/>
</clipPath>
</defs>
</svg>
