<svg width="48" height="48" viewBox="0 0 48 48" fill="none" xmlns="http://www.w3.org/2000/svg">
<path d="M24 4C12.954 4 4 12.954 4 24C4 35.046 12.954 44 24 44C35.046 44 44 35.046 44 24C44 12.954 35.046 4 24 4Z" fill="url(#paint0_linear_173_99)"/>
<path d="M26.7095 29.2999H31.8855L32.6985 24.0419H26.7095V21.1679C26.7095 18.9839 27.4235 17.0469 29.4665 17.0469H32.7495V12.4589C32.1725 12.3809 30.9525 12.2109 28.6475 12.2109C23.8335 12.2109 21.0115 14.7529 21.0115 20.5449V24.0429H16.0625V29.3009H21.0105V43.7529C21.9905 43.8989 22.9835 43.9989 24.0025 43.9989C24.9235 43.9989 25.8225 43.9149 26.7095 43.7949V29.2999Z" fill="white"/>
<defs>
<linearGradient id="paint0_linear_173_99" x1="9.993" y1="9.993" x2="40.615" y2="40.615" gradientUnits="userSpaceOnUse">
<stop stop-color="#2AA4F4"/>
<stop offset="1" stop-color="#007AD9"/>
</linearGradient>
</defs>
</svg>
