<svg width="48" height="48" viewBox="0 0 48 48" fill="none" xmlns="http://www.w3.org/2000/svg">
<circle cx="24" cy="24" r="20.2109" fill="white"/>
<path d="M24 2.32031C12.0269 2.32031 2.32031 12.0269 2.32031 24C2.32031 35.9731 12.0269 45.6797 24 45.6797C35.9731 45.6797 45.6797 35.9731 45.6797 24C45.6797 12.0269 35.9731 2.32031 24 2.32031ZM24 6.26207C33.7963 6.26207 41.7379 14.2037 41.7379 24C41.7379 32.1188 36.2773 38.9485 28.8329 41.0547C28.7414 40.8662 28.6787 40.6598 28.6847 40.4253C28.7152 39.2339 28.6847 36.4536 28.6847 35.4326C28.6847 33.6805 27.5761 32.4378 27.5761 32.4378C27.5761 32.4378 36.2718 32.536 36.2718 23.2571C36.2718 19.677 34.401 17.8121 34.401 17.8121C34.401 17.8121 35.3838 13.9902 34.0603 12.3691C32.5773 12.2085 29.9209 13.7857 28.7867 14.5228C28.7867 14.5228 26.9898 13.7857 24 13.7857C21.0102 13.7857 19.2133 14.5228 19.2133 14.5228C18.0791 13.7857 15.4227 12.2095 13.9397 12.3691C12.6172 13.9902 13.599 17.8121 13.599 17.8121C13.599 17.8121 11.7282 19.675 11.7282 23.2551C11.7282 32.5341 20.4239 32.4378 20.4239 32.4378C20.4239 32.4378 19.4338 33.565 19.3346 35.1805C18.7535 35.3854 17.9614 35.627 17.2059 35.627C15.3828 35.627 13.9978 33.8563 13.4893 33.0364C12.9887 32.2274 11.9624 31.5486 11.0045 31.5486C10.3738 31.5486 10.0653 31.8654 10.0653 32.2261C10.0653 32.5868 10.9504 32.8379 11.5338 33.506C12.7636 34.9152 12.7408 38.0849 17.1231 38.0849C17.6412 38.0849 18.5722 37.9655 19.3153 37.8635C19.3112 38.8584 19.2996 39.8125 19.3153 40.4234C19.3211 40.6586 19.2572 40.8658 19.1652 41.0547C11.7217 38.9479 6.26207 32.1181 6.26207 24C6.26207 14.2037 14.2037 6.26207 24 6.26207Z" fill="black"/>
</svg>
