<svg width="49" height="49" viewBox="0 0 49 49" fill="none" xmlns="http://www.w3.org/2000/svg">
<g clip-path="url(#clip0_173_40)">
<path d="M6.25 6.26562V42.2656H24.25V33.2656V15.2656V6.26562H6.25ZM24.25 15.2656C24.25 20.2276 28.288 24.2656 33.25 24.2656C38.212 24.2656 42.25 20.2276 42.25 15.2656C42.25 10.3036 38.212 6.26562 33.25 6.26562C28.288 6.26562 24.25 10.3036 24.25 15.2656ZM33.25 24.2656C28.288 24.2656 24.25 28.3036 24.25 33.2656C24.25 38.2276 28.288 42.2656 33.25 42.2656C38.212 42.2656 42.25 38.2276 42.25 33.2656C42.25 28.3036 38.212 24.2656 33.25 24.2656Z" fill="#1FB141"/>
</g>
<defs>
<clipPath id="clip0_173_40">
<rect width="48" height="48" fill="white" transform="translate(0.25 0.265625)"/>
</clipPath>
</defs>
</svg>
