<svg width="48" height="48" viewBox="0 0 48 48" fill="none" xmlns="http://www.w3.org/2000/svg">
<path d="M39.8169 31.1406H8.16397L2.1875 47.5104H45.8125L39.8169 31.1406Z" fill="#7CB342"/>
<path d="M11.1691 18.6906C9.08195 11.0547 11.8135 6.33698 16.0616 2.95181C19.6681 0.278625 25.052 -0.121901 28.6296 1.29705V9.07744C26.9984 8.00033 26.0182 7.68706 23.8924 7.68706C20.2084 7.68706 17.0986 9.55813 17.0986 13.9281C17.0986 17.8745 19.5914 21.4366 23.8528 21.332C25.9016 21.332 27.1773 20.8883 28.6296 19.6946V33.2158C26.7749 35.7711 25.2846 37.8233 24.0641 39.3188C20.6664 34.9246 14.08 26.1025 11.1691 18.6906Z" fill="#FF3D00"/>
<path d="M36.8231 19.0184C38.9102 11.3825 36.1787 6.66477 31.9306 3.27961C28.3333 0.32139 23.3061 -0.154822 19.3625 1.25103L19.3151 8.83196C20.4987 7.91541 22.0052 7.68134 24.1309 7.68134C27.8245 7.68134 30.8936 9.88593 30.8936 14.2559C30.8936 18.2023 28.2508 21.3288 24.1309 21.3288C22.0821 21.3288 20.5971 20.8147 19.3625 19.6649V32.9547C21.18 35.4902 22.8568 37.8126 24.0806 39.332C27.4784 34.9378 33.9122 26.4303 36.8231 19.0184Z" fill="#FF3D00"/>
<circle cx="23.9942" cy="14.2286" r="7.29107" fill="#D9D9D9"/>
</svg>
