<svg width="48" height="48" viewBox="0 0 48 48" fill="none" xmlns="http://www.w3.org/2000/svg">
<path d="M22.5339 5.98278L4.18773 17.8645C3.79955 18.1364 3.76268 18.7963 4.48437 19.2427L23.0262 29.7727C23.6846 30.2061 24.3093 30.1902 25.0217 29.7603L43.5227 18.5574C44.4004 18.0485 44.1182 17.5751 43.5227 17.2658L25.5876 5.98278C24.3213 5.15539 23.8098 5.1896 22.5339 5.98278Z" fill="#0271C8"/>
<rect x="9.38281" y="15.6953" width="29.2317" height="23.3925" fill="#F5F5F4"/>
<path d="M43.1132 18.0191L23.9252 29.1564C23.3172 29.537 23.445 29.945 23.853 30.1791L44.0866 42.1854V18.0191C44.0865 17.5441 43.5409 17.7729 43.1132 18.0191Z" fill="#38C5F2"/>
<path d="M3.91406 18.4613V41.145C3.91406 42.0307 4.47691 42.6264 5.1779 42.6264H42.6986C44.9094 42.6264 43.9798 41.5327 43.2611 41.1031L5.34191 18.4613C4.10338 17.706 3.91934 18.0285 3.91406 18.4613Z" fill="#1B9EE3"/>
<rect x="13.9766" y="19" width="19.5849" height="0.500058" fill="black"/>
<rect x="13.9766" y="20.9219" width="19.5849" height="0.500058" fill="black"/>
<rect x="13.9766" y="22.8438" width="9.82791" height="0.500058" fill="black"/>
</svg>
