<svg width="48" height="48" viewBox="0 0 48 48" fill="none" xmlns="http://www.w3.org/2000/svg">
<path d="M12.3958 2.36007L5.80469 4.50979C14.187 23.1508 22.9042 33.658 43.6424 42.4141L45.6763 36.005C46.095 34.6675 45.766 34.0019 45.2273 33.6928C45.2273 33.6928 37.605 29.2884 37.152 28.9996C36.116 28.3392 34.7424 27.9711 33.9217 28.7658L29.9363 32.7407C29.3603 33.3434 28.7249 33.9242 27.5705 33.324C22.9298 30.0471 18.7288 25.4299 15.0169 20.6718C14.4501 19.8944 14.7797 19.1054 15.1921 18.7023L19.5707 14.3336C20.432 13.552 20.1437 12.7704 19.7545 11.9743L14.9404 3.2718C14.5639 2.49865 13.4456 2.04215 12.3958 2.36007Z" fill="#1A9BA1"/>
<path d="M14.8649 20.5317L5.7949 4.52344L4.34102 5.42798L2.88715 6.33252C2.17856 6.74496 1.98137 7.2928 2.24407 8.31283C10.4298 26.9485 21.945 38.9649 39.2435 45.3907C41.1561 46.1666 42.0853 45.4584 42.3109 45.0073L43.6772 42.4226L27.9982 33.4632C22.7992 30.3589 17.0764 23.5487 14.8649 20.5317Z" fill="#37C6D0"/>
</svg>
